<svg width="20" height="20" viewBox="0 0 20 20" fill="none" xmlns="http://www.w3.org/2000/svg">
<path d="M10 19.4687C9.83333 19.4687 9.67708 19.4429 9.53125 19.3912C9.38542 19.3396 9.25 19.2508 9.125 19.125L0.875 10.875C0.625 10.625 0.5 10.3283 0.5 9.985C0.5 9.64167 0.625 9.34458 0.875 9.09375C1.125 8.84375 1.41667 8.71875 1.75 8.71875C2.08333 8.71875 2.375 8.84375 2.625 9.09375L8.75 15.2187V1.21875C8.75 0.864583 8.87 0.572917 9.11 0.34375C9.35 0.114583 9.64667 0 10 0C10.3542 0 10.6512 0.12 10.8912 0.36C11.1312 0.6 11.2508 0.896667 11.25 1.25V15.2187L17.375 9.09375C17.625 8.84375 17.9167 8.71875 18.25 8.71875C18.5833 8.71875 18.875 8.84375 19.125 9.09375C19.375 9.34375 19.5 9.64083 19.5 9.985C19.5 10.3292 19.375 10.6258 19.125 10.875L10.875 19.125C10.75 19.25 10.6146 19.3387 10.4687 19.3912C10.3229 19.4437 10.1667 19.4696 10 19.4687Z" fill="#222222"/>
</svg>
