<svg width="1434" height="185" viewBox="0 0 1434 185" fill="none" xmlns="http://www.w3.org/2000/svg">
<rect x="42" y="19" width="190" height="100" rx="10" fill="#FE5F55"/>
<rect x="276" y="19" width="190" height="100" rx="10" fill="#284B63"/>
<rect x="510" y="19" width="190" height="100" rx="10" fill="#2A457A"/>
<rect x="744.5" y="19.5" width="189" height="99" rx="9.5" fill="white"/>
<rect x="744.5" y="19.5" width="189" height="99" rx="9.5" stroke="black"/>
<rect x="978" y="19" width="190" height="100" rx="10" fill="#799496"/>
<rect x="1212" y="19" width="190" height="100" rx="10" fill="#F1F1F1"/>
<g clip-path="url(#clip0_27_471)">
<rect width="186.333" height="37" transform="translate(32 148)" fill="white"/>
<path d="M84.1202 175V157.545H94.5861V159.42H86.2338V165.318H93.802V167.193H86.2338V175H84.1202ZM98.2061 175V157.545H108.74V159.42H100.32V165.318H108.195V167.193H100.32V173.125H108.877V175H98.2061ZM117.698 175.239C116.698 175.239 115.797 175.04 114.996 174.642C114.195 174.244 113.553 173.699 113.07 173.006C112.587 172.312 112.323 171.523 112.277 170.636H114.323C114.402 171.426 114.76 172.08 115.396 172.597C116.038 173.108 116.806 173.364 117.698 173.364C118.413 173.364 119.05 173.196 119.607 172.861C120.169 172.526 120.61 172.065 120.928 171.48C121.252 170.889 121.413 170.222 121.413 169.477C121.413 168.716 121.246 168.037 120.911 167.44C120.581 166.838 120.127 166.364 119.547 166.017C118.967 165.67 118.306 165.494 117.561 165.489C117.027 165.483 116.479 165.565 115.916 165.736C115.354 165.901 114.891 166.114 114.527 166.375L112.55 166.136L113.607 157.545H122.675V159.42H115.379L114.766 164.568H114.868C115.226 164.284 115.675 164.048 116.215 163.861C116.754 163.673 117.317 163.58 117.902 163.58C118.97 163.58 119.922 163.835 120.757 164.347C121.598 164.852 122.257 165.545 122.735 166.426C123.217 167.307 123.459 168.312 123.459 169.443C123.459 170.557 123.209 171.551 122.709 172.426C122.215 173.295 121.533 173.983 120.663 174.489C119.794 174.989 118.806 175.239 117.698 175.239ZM127.151 175V157.545H137.617V159.42H129.265V165.318H136.833V167.193H129.265V175H127.151ZM146.385 175.239C145.385 175.239 144.485 175.04 143.683 174.642C142.882 174.244 142.24 173.699 141.757 173.006C141.274 172.312 141.01 171.523 140.965 170.636H143.01C143.09 171.426 143.448 172.08 144.084 172.597C144.726 173.108 145.493 173.364 146.385 173.364C147.101 173.364 147.737 173.196 148.294 172.861C148.857 172.526 149.297 172.065 149.615 171.48C149.939 170.889 150.101 170.222 150.101 169.477C150.101 168.716 149.933 168.037 149.598 167.44C149.269 166.838 148.814 166.364 148.235 166.017C147.655 165.67 146.993 165.494 146.249 165.489C145.715 165.483 145.166 165.565 144.604 165.736C144.041 165.901 143.578 166.114 143.215 166.375L141.237 166.136L142.294 157.545H151.362V159.42H144.067L143.453 164.568H143.556C143.913 164.284 144.362 164.048 144.902 163.861C145.442 163.673 146.004 163.58 146.59 163.58C147.658 163.58 148.61 163.835 149.445 164.347C150.286 164.852 150.945 165.545 151.422 166.426C151.905 167.307 152.146 168.312 152.146 169.443C152.146 170.557 151.896 171.551 151.396 172.426C150.902 173.295 150.22 173.983 149.351 174.489C148.482 174.989 147.493 175.239 146.385 175.239ZM160.987 175.239C159.987 175.239 159.086 175.04 158.285 174.642C157.484 174.244 156.842 173.699 156.359 173.006C155.876 172.312 155.612 171.523 155.566 170.636H157.612C157.691 171.426 158.049 172.08 158.686 172.597C159.328 173.108 160.095 173.364 160.987 173.364C161.703 173.364 162.339 173.196 162.896 172.861C163.458 172.526 163.899 172.065 164.217 171.48C164.541 170.889 164.703 170.222 164.703 169.477C164.703 168.716 164.535 168.037 164.2 167.44C163.87 166.838 163.416 166.364 162.836 166.017C162.257 165.67 161.595 165.494 160.85 165.489C160.316 165.483 159.768 165.565 159.205 165.736C158.643 165.901 158.18 166.114 157.816 166.375L155.839 166.136L156.896 157.545H165.964V159.42H158.668L158.055 164.568H158.157C158.515 164.284 158.964 164.048 159.504 163.861C160.043 163.673 160.606 163.58 161.191 163.58C162.259 163.58 163.211 163.835 164.046 164.347C164.887 164.852 165.546 165.545 166.024 166.426C166.507 167.307 166.748 168.312 166.748 169.443C166.748 170.557 166.498 171.551 165.998 172.426C165.504 173.295 164.822 173.983 163.953 174.489C163.083 174.989 162.095 175.239 160.987 175.239Z" fill="black"/>
<rect width="186.333" height="37" transform="translate(262.333 148)" fill="white"/>
<path d="M312.014 175V173.466L317.775 167.159C318.451 166.42 319.008 165.778 319.446 165.233C319.883 164.682 320.207 164.165 320.417 163.682C320.633 163.193 320.741 162.682 320.741 162.148C320.741 161.534 320.593 161.003 320.298 160.554C320.008 160.105 319.61 159.759 319.105 159.514C318.599 159.27 318.031 159.148 317.4 159.148C316.73 159.148 316.145 159.287 315.645 159.565C315.15 159.838 314.767 160.222 314.494 160.716C314.227 161.21 314.093 161.79 314.093 162.455H312.082C312.082 161.432 312.318 160.534 312.789 159.761C313.261 158.989 313.903 158.386 314.716 157.955C315.534 157.523 316.451 157.307 317.468 157.307C318.491 157.307 319.397 157.523 320.187 157.955C320.977 158.386 321.596 158.969 322.045 159.702C322.494 160.435 322.718 161.25 322.718 162.148C322.718 162.79 322.602 163.418 322.369 164.031C322.142 164.639 321.744 165.318 321.176 166.068C320.613 166.812 319.832 167.722 318.832 168.795L314.912 172.989V173.125H323.025V175H312.014ZM332.136 175.239C330.966 175.239 329.931 175.031 329.034 174.616C328.142 174.196 327.446 173.619 326.946 172.886C326.446 172.148 326.199 171.307 326.204 170.364C326.199 169.625 326.343 168.943 326.639 168.318C326.934 167.687 327.338 167.162 327.849 166.741C328.366 166.315 328.943 166.045 329.579 165.932V165.83C328.744 165.614 328.079 165.145 327.585 164.423C327.091 163.696 326.846 162.869 326.852 161.943C326.846 161.057 327.071 160.264 327.525 159.565C327.98 158.866 328.605 158.315 329.4 157.912C330.201 157.509 331.113 157.307 332.136 157.307C333.147 157.307 334.051 157.509 334.846 157.912C335.642 158.315 336.267 158.866 336.721 159.565C337.181 160.264 337.414 161.057 337.42 161.943C337.414 162.869 337.162 163.696 336.662 164.423C336.167 165.145 335.511 165.614 334.693 165.83V165.932C335.324 166.045 335.892 166.315 336.397 166.741C336.903 167.162 337.306 167.687 337.608 168.318C337.909 168.943 338.062 169.625 338.068 170.364C338.062 171.307 337.806 172.148 337.301 172.886C336.801 173.619 336.105 174.196 335.213 174.616C334.326 175.031 333.301 175.239 332.136 175.239ZM332.136 173.364C332.926 173.364 333.608 173.236 334.181 172.98C334.755 172.724 335.199 172.364 335.511 171.898C335.824 171.432 335.983 170.886 335.988 170.261C335.983 169.602 335.812 169.02 335.477 168.514C335.142 168.009 334.684 167.611 334.105 167.321C333.531 167.031 332.875 166.886 332.136 166.886C331.392 166.886 330.727 167.031 330.142 167.321C329.562 167.611 329.105 168.009 328.77 168.514C328.44 169.02 328.278 169.602 328.284 170.261C328.278 170.886 328.429 171.432 328.735 171.898C329.048 172.364 329.494 172.724 330.074 172.98C330.653 173.236 331.341 173.364 332.136 173.364ZM332.136 165.08C332.761 165.08 333.315 164.955 333.798 164.705C334.287 164.455 334.67 164.105 334.949 163.656C335.227 163.207 335.369 162.682 335.375 162.08C335.369 161.489 335.23 160.974 334.957 160.537C334.684 160.094 334.306 159.753 333.824 159.514C333.341 159.27 332.778 159.148 332.136 159.148C331.483 159.148 330.912 159.27 330.423 159.514C329.934 159.753 329.556 160.094 329.289 160.537C329.022 160.974 328.892 161.489 328.897 162.08C328.892 162.682 329.025 163.207 329.298 163.656C329.576 164.105 329.96 164.455 330.449 164.705C330.937 164.955 331.5 165.08 332.136 165.08ZM340.925 171.42V169.682L348.596 157.545H349.857V160.239H349.005L343.209 169.409V169.545H353.539V171.42H340.925ZM349.141 175V170.892V170.082V157.545H351.152V175H349.141ZM357.039 175V157.545H363.142C364.358 157.545 365.36 157.756 366.15 158.176C366.94 158.591 367.528 159.151 367.914 159.855C368.301 160.554 368.494 161.33 368.494 162.182C368.494 162.932 368.36 163.551 368.093 164.04C367.832 164.528 367.485 164.915 367.054 165.199C366.627 165.483 366.164 165.693 365.664 165.83V166C366.199 166.034 366.735 166.222 367.275 166.562C367.815 166.903 368.267 167.392 368.63 168.028C368.994 168.665 369.176 169.443 369.176 170.364C369.176 171.239 368.977 172.026 368.579 172.724C368.181 173.423 367.554 173.977 366.696 174.386C365.838 174.795 364.721 175 363.346 175H357.039ZM359.153 173.125H363.346C364.727 173.125 365.707 172.858 366.287 172.324C366.872 171.784 367.164 171.131 367.164 170.364C367.164 169.773 367.014 169.227 366.713 168.727C366.412 168.222 365.983 167.818 365.426 167.517C364.869 167.21 364.21 167.057 363.449 167.057H359.153V173.125ZM359.153 165.216H363.074C363.71 165.216 364.284 165.091 364.795 164.841C365.312 164.591 365.721 164.239 366.022 163.784C366.329 163.33 366.483 162.795 366.483 162.182C366.483 161.415 366.216 160.764 365.681 160.23C365.147 159.69 364.301 159.42 363.142 159.42H359.153V165.216ZM378.137 175.239C377.422 175.227 376.706 175.091 375.99 174.83C375.274 174.568 374.62 174.128 374.029 173.509C373.439 172.884 372.964 172.04 372.606 170.977C372.248 169.909 372.069 168.568 372.069 166.955C372.069 165.409 372.214 164.04 372.504 162.847C372.794 161.648 373.214 160.639 373.765 159.821C374.316 158.997 374.981 158.372 375.76 157.946C376.544 157.52 377.427 157.307 378.41 157.307C379.387 157.307 380.257 157.503 381.018 157.895C381.785 158.281 382.41 158.821 382.893 159.514C383.376 160.207 383.689 161.006 383.831 161.909H381.751C381.558 161.125 381.183 160.474 380.626 159.957C380.069 159.44 379.331 159.182 378.41 159.182C377.058 159.182 375.993 159.77 375.214 160.946C374.441 162.122 374.052 163.773 374.047 165.898H374.183C374.501 165.415 374.879 165.003 375.316 164.662C375.76 164.315 376.248 164.048 376.782 163.861C377.316 163.673 377.882 163.58 378.478 163.58C379.478 163.58 380.393 163.83 381.223 164.33C382.052 164.824 382.717 165.509 383.217 166.384C383.717 167.253 383.967 168.25 383.967 169.375C383.967 170.455 383.725 171.443 383.243 172.341C382.76 173.233 382.081 173.943 381.206 174.472C380.336 174.994 379.314 175.25 378.137 175.239ZM378.137 173.364C378.853 173.364 379.495 173.185 380.064 172.827C380.637 172.469 381.089 171.989 381.419 171.386C381.754 170.784 381.922 170.114 381.922 169.375C381.922 168.653 381.76 167.997 381.436 167.406C381.118 166.81 380.677 166.335 380.115 165.983C379.558 165.631 378.922 165.455 378.206 165.455C377.666 165.455 377.163 165.562 376.697 165.778C376.231 165.989 375.822 166.278 375.47 166.648C375.123 167.017 374.85 167.44 374.652 167.918C374.453 168.389 374.353 168.886 374.353 169.409C374.353 170.102 374.515 170.75 374.839 171.352C375.169 171.955 375.618 172.44 376.186 172.81C376.76 173.179 377.41 173.364 378.137 173.364ZM393.216 175.239C392.091 175.239 391.088 175.045 390.208 174.659C389.333 174.273 388.637 173.736 388.12 173.048C387.608 172.355 387.33 171.551 387.284 170.636H389.432C389.478 171.199 389.671 171.685 390.012 172.094C390.353 172.497 390.799 172.81 391.35 173.031C391.901 173.253 392.512 173.364 393.182 173.364C393.932 173.364 394.597 173.233 395.176 172.972C395.756 172.71 396.211 172.347 396.54 171.881C396.87 171.415 397.034 170.875 397.034 170.261C397.034 169.619 396.875 169.054 396.557 168.565C396.239 168.071 395.773 167.685 395.159 167.406C394.546 167.128 393.796 166.989 392.909 166.989H391.512V165.114H392.909C393.603 165.114 394.211 164.989 394.733 164.739C395.262 164.489 395.674 164.136 395.969 163.682C396.27 163.227 396.421 162.693 396.421 162.08C396.421 161.489 396.29 160.974 396.029 160.537C395.767 160.099 395.398 159.759 394.921 159.514C394.449 159.27 393.892 159.148 393.25 159.148C392.648 159.148 392.08 159.259 391.546 159.48C391.017 159.696 390.586 160.011 390.25 160.426C389.915 160.835 389.733 161.33 389.705 161.909H387.659C387.694 160.994 387.969 160.193 388.486 159.506C389.003 158.812 389.679 158.273 390.515 157.886C391.355 157.5 392.279 157.307 393.284 157.307C394.364 157.307 395.29 157.526 396.063 157.963C396.836 158.395 397.429 158.966 397.844 159.676C398.259 160.386 398.466 161.153 398.466 161.977C398.466 162.96 398.208 163.798 397.691 164.491C397.179 165.185 396.483 165.665 395.603 165.932V166.068C396.705 166.25 397.566 166.719 398.185 167.474C398.804 168.224 399.114 169.153 399.114 170.261C399.114 171.21 398.855 172.062 398.338 172.818C397.827 173.568 397.128 174.159 396.242 174.591C395.355 175.023 394.347 175.239 393.216 175.239Z" fill="black"/>
<rect width="186.333" height="37" transform="translate(492.667 148)" fill="white"/>
<path d="M543.601 175V173.466L549.362 167.159C550.039 166.42 550.595 165.778 551.033 165.233C551.47 164.682 551.794 164.165 552.004 163.682C552.22 163.193 552.328 162.682 552.328 162.148C552.328 161.534 552.181 161.003 551.885 160.554C551.595 160.105 551.198 159.759 550.692 159.514C550.186 159.27 549.618 159.148 548.987 159.148C548.317 159.148 547.732 159.287 547.232 159.565C546.737 159.838 546.354 160.222 546.081 160.716C545.814 161.21 545.681 161.79 545.681 162.455H543.669C543.669 161.432 543.905 160.534 544.377 159.761C544.848 158.989 545.49 158.386 546.303 157.955C547.121 157.523 548.039 157.307 549.056 157.307C550.078 157.307 550.985 157.523 551.774 157.955C552.564 158.386 553.183 158.969 553.632 159.702C554.081 160.435 554.306 161.25 554.306 162.148C554.306 162.79 554.189 163.418 553.956 164.031C553.729 164.639 553.331 165.318 552.763 166.068C552.201 166.812 551.419 167.722 550.419 168.795L546.499 172.989V173.125H554.612V175H543.601ZM559.155 175H556.939L563.348 157.545H565.53L571.939 175H569.723L564.507 160.307H564.371L559.155 175ZM559.973 168.182H568.905V170.057H559.973V168.182ZM573.942 171.42V169.682L581.612 157.545H582.874V160.239H582.022L576.226 169.409V169.545H586.556V171.42H573.942ZM582.158 175V170.892V170.082V157.545H584.169V175H582.158ZM595.204 175.239C594.204 175.239 593.303 175.04 592.502 174.642C591.701 174.244 591.059 173.699 590.576 173.006C590.093 172.312 589.829 171.523 589.784 170.636H591.829C591.909 171.426 592.267 172.08 592.903 172.597C593.545 173.108 594.312 173.364 595.204 173.364C595.92 173.364 596.556 173.196 597.113 172.861C597.676 172.526 598.116 172.065 598.434 171.48C598.758 170.889 598.92 170.222 598.92 169.477C598.92 168.716 598.752 168.037 598.417 167.44C598.088 166.838 597.633 166.364 597.053 166.017C596.474 165.67 595.812 165.494 595.068 165.489C594.534 165.483 593.985 165.565 593.423 165.736C592.86 165.901 592.397 166.114 592.034 166.375L590.056 166.136L591.113 157.545H600.181V159.42H592.886L592.272 164.568H592.375C592.732 164.284 593.181 164.048 593.721 163.861C594.261 163.673 594.823 163.58 595.409 163.58C596.477 163.58 597.428 163.835 598.264 164.347C599.105 164.852 599.764 165.545 600.241 166.426C600.724 167.307 600.965 168.312 600.965 169.443C600.965 170.557 600.715 171.551 600.215 172.426C599.721 173.295 599.039 173.983 598.17 174.489C597.301 174.989 596.312 175.239 595.204 175.239ZM604.897 175L612.703 159.557V159.42H603.703V157.545H614.885V159.523L607.112 175H604.897ZM616.483 175H614.267L620.676 157.545H622.858L629.267 175H627.051L621.835 160.307H621.699L616.483 175ZM617.301 168.182H626.233V170.057H617.301V168.182Z" fill="black"/>
<rect width="186.333" height="37" transform="translate(723 148)" fill="white"/>
<path d="M776.022 175V157.545H786.488V159.42H778.136V165.318H785.704V167.193H778.136V175H776.022ZM790.108 175V157.545H800.574V159.42H792.222V165.318H799.79V167.193H792.222V175H790.108ZM804.194 175V157.545H814.66V159.42H806.308V165.318H813.876V167.193H806.308V175H804.194ZM818.28 175V157.545H828.746V159.42H820.394V165.318H827.962V167.193H820.394V175H818.28ZM832.366 175V157.545H842.832V159.42H834.48V165.318H842.048V167.193H834.48V175H832.366ZM846.452 175V157.545H856.918V159.42H848.566V165.318H856.134V167.193H848.566V175H846.452Z" fill="black"/>
<rect width="186.333" height="37" transform="translate(953.333 148)" fill="white"/>
<path d="M1004.46 175L1012.27 159.557V159.42H1003.27V157.545H1014.45V159.523L1006.68 175H1004.46ZM1022.95 157.307C1023.67 157.312 1024.38 157.449 1025.1 157.716C1025.81 157.983 1026.47 158.426 1027.06 159.045C1027.65 159.659 1028.12 160.497 1028.48 161.56C1028.84 162.622 1029.02 163.955 1029.02 165.557C1029.02 167.108 1028.87 168.486 1028.57 169.69C1028.28 170.889 1027.86 171.901 1027.31 172.724C1026.77 173.548 1026.1 174.173 1025.32 174.599C1024.54 175.026 1023.66 175.239 1022.68 175.239C1021.7 175.239 1020.83 175.045 1020.06 174.659C1019.3 174.267 1018.67 173.724 1018.19 173.031C1017.7 172.332 1017.39 171.523 1017.26 170.602H1019.34C1019.52 171.403 1019.9 172.065 1020.45 172.588C1021.01 173.105 1021.76 173.364 1022.68 173.364C1024.02 173.364 1025.09 172.776 1025.86 171.599C1026.65 170.423 1027.04 168.761 1027.04 166.614H1026.9C1026.59 167.091 1026.21 167.503 1025.77 167.849C1025.33 168.196 1024.85 168.463 1024.31 168.651C1023.78 168.838 1023.21 168.932 1022.61 168.932C1021.61 168.932 1020.69 168.685 1019.86 168.19C1019.03 167.69 1018.36 167.006 1017.86 166.136C1017.37 165.261 1017.12 164.261 1017.12 163.136C1017.12 162.068 1017.36 161.091 1017.84 160.205C1018.32 159.312 1019 158.602 1019.86 158.074C1020.74 157.545 1021.77 157.29 1022.95 157.307ZM1022.95 159.182C1022.23 159.182 1021.59 159.361 1021.01 159.719C1020.45 160.071 1020 160.548 1019.66 161.151C1019.33 161.747 1019.17 162.409 1019.17 163.136C1019.17 163.864 1019.32 164.526 1019.64 165.122C1019.97 165.713 1020.41 166.185 1020.96 166.537C1021.53 166.884 1022.17 167.057 1022.88 167.057C1023.42 167.057 1023.92 166.952 1024.39 166.741C1024.86 166.526 1025.26 166.233 1025.61 165.864C1025.96 165.489 1026.24 165.065 1026.44 164.594C1026.63 164.116 1026.73 163.619 1026.73 163.102C1026.73 162.42 1026.57 161.781 1026.24 161.185C1025.92 160.588 1025.47 160.105 1024.89 159.736C1024.32 159.366 1023.68 159.182 1022.95 159.182ZM1037.93 157.307C1038.64 157.312 1039.36 157.449 1040.07 157.716C1040.79 157.983 1041.44 158.426 1042.03 159.045C1042.63 159.659 1043.1 160.497 1043.46 161.56C1043.82 162.622 1043.99 163.955 1043.99 165.557C1043.99 167.108 1043.85 168.486 1043.55 169.69C1043.26 170.889 1042.84 171.901 1042.29 172.724C1041.74 173.548 1041.08 174.173 1040.3 174.599C1039.52 175.026 1038.64 175.239 1037.65 175.239C1036.68 175.239 1035.8 175.045 1035.04 174.659C1034.28 174.267 1033.65 173.724 1033.16 173.031C1032.68 172.332 1032.37 171.523 1032.23 170.602H1034.31C1034.5 171.403 1034.87 172.065 1035.43 172.588C1035.99 173.105 1036.73 173.364 1037.65 173.364C1039 173.364 1040.06 172.776 1040.84 171.599C1041.63 170.423 1042.02 168.761 1042.02 166.614H1041.88C1041.56 167.091 1041.18 167.503 1040.75 167.849C1040.31 168.196 1039.82 168.463 1039.29 168.651C1038.76 168.838 1038.19 168.932 1037.59 168.932C1036.59 168.932 1035.67 168.685 1034.83 168.19C1034 167.69 1033.34 167.006 1032.84 166.136C1032.34 165.261 1032.1 164.261 1032.1 163.136C1032.1 162.068 1032.34 161.091 1032.81 160.205C1033.3 159.312 1033.97 158.602 1034.84 158.074C1035.72 157.545 1036.74 157.29 1037.93 157.307ZM1037.93 159.182C1037.21 159.182 1036.57 159.361 1035.99 159.719C1035.42 160.071 1034.97 160.548 1034.64 161.151C1034.31 161.747 1034.14 162.409 1034.14 163.136C1034.14 163.864 1034.3 164.526 1034.62 165.122C1034.94 165.713 1035.38 166.185 1035.94 166.537C1036.5 166.884 1037.14 167.057 1037.86 167.057C1038.4 167.057 1038.9 166.952 1039.37 166.741C1039.83 166.526 1040.24 166.233 1040.59 165.864C1040.94 165.489 1041.21 165.065 1041.41 164.594C1041.61 164.116 1041.71 163.619 1041.71 163.102C1041.71 162.42 1041.55 161.781 1041.22 161.185C1040.89 160.588 1040.44 160.105 1039.87 159.736C1039.3 159.366 1038.65 159.182 1037.93 159.182ZM1046.94 171.42V169.682L1054.61 157.545H1055.87V160.239H1055.02L1049.22 169.409V169.545H1059.55V171.42H1046.94ZM1055.15 175V170.892V170.082V157.545H1057.16V175H1055.15ZM1068.3 157.307C1069.02 157.312 1069.73 157.449 1070.45 157.716C1071.16 157.983 1071.82 158.426 1072.41 159.045C1073 159.659 1073.47 160.497 1073.83 161.56C1074.19 162.622 1074.37 163.955 1074.37 165.557C1074.37 167.108 1074.22 168.486 1073.93 169.69C1073.64 170.889 1073.22 171.901 1072.66 172.724C1072.12 173.548 1071.45 174.173 1070.67 174.599C1069.89 175.026 1069.01 175.239 1068.03 175.239C1067.05 175.239 1066.18 175.045 1065.41 174.659C1064.65 174.267 1064.03 173.724 1063.54 173.031C1063.05 172.332 1062.74 171.523 1062.61 170.602H1064.69C1064.88 171.403 1065.25 172.065 1065.8 172.588C1066.37 173.105 1067.11 173.364 1068.03 173.364C1069.38 173.364 1070.44 172.776 1071.22 171.599C1072 170.423 1072.39 168.761 1072.39 166.614H1072.26C1071.94 167.091 1071.56 167.503 1071.12 167.849C1070.68 168.196 1070.2 168.463 1069.66 168.651C1069.13 168.838 1068.56 168.932 1067.96 168.932C1066.96 168.932 1066.04 168.685 1065.21 168.19C1064.38 167.69 1063.71 167.006 1063.21 166.136C1062.72 165.261 1062.47 164.261 1062.47 163.136C1062.47 162.068 1062.71 161.091 1063.19 160.205C1063.67 159.312 1064.35 158.602 1065.22 158.074C1066.09 157.545 1067.12 157.29 1068.3 157.307ZM1068.3 159.182C1067.59 159.182 1066.94 159.361 1066.37 159.719C1065.8 160.071 1065.35 160.548 1065.01 161.151C1064.68 161.747 1064.52 162.409 1064.52 163.136C1064.52 163.864 1064.68 164.526 1064.99 165.122C1065.32 165.713 1065.76 166.185 1066.32 166.537C1066.88 166.884 1067.52 167.057 1068.23 167.057C1068.77 167.057 1069.28 166.952 1069.74 166.741C1070.21 166.526 1070.61 166.233 1070.96 165.864C1071.31 165.489 1071.59 165.065 1071.79 164.594C1071.99 164.116 1072.09 163.619 1072.09 163.102C1072.09 162.42 1071.92 161.781 1071.59 161.185C1071.27 160.588 1070.82 160.105 1070.24 159.736C1069.68 159.366 1069.03 159.182 1068.3 159.182ZM1083.52 175.239C1082.8 175.227 1082.08 175.091 1081.37 174.83C1080.65 174.568 1080 174.128 1079.41 173.509C1078.82 172.884 1078.34 172.04 1077.99 170.977C1077.63 169.909 1077.45 168.568 1077.45 166.955C1077.45 165.409 1077.59 164.04 1077.88 162.847C1078.17 161.648 1078.59 160.639 1079.14 159.821C1079.7 158.997 1080.36 158.372 1081.14 157.946C1081.92 157.52 1082.81 157.307 1083.79 157.307C1084.77 157.307 1085.64 157.503 1086.4 157.895C1087.16 158.281 1087.79 158.821 1088.27 159.514C1088.75 160.207 1089.07 161.006 1089.21 161.909H1087.13C1086.94 161.125 1086.56 160.474 1086 159.957C1085.45 159.44 1084.71 159.182 1083.79 159.182C1082.44 159.182 1081.37 159.77 1080.59 160.946C1079.82 162.122 1079.43 163.773 1079.43 165.898H1079.56C1079.88 165.415 1080.26 165.003 1080.7 164.662C1081.14 164.315 1081.63 164.048 1082.16 163.861C1082.7 163.673 1083.26 163.58 1083.86 163.58C1084.86 163.58 1085.77 163.83 1086.6 164.33C1087.43 164.824 1088.1 165.509 1088.6 166.384C1089.1 167.253 1089.35 168.25 1089.35 169.375C1089.35 170.455 1089.1 171.443 1088.62 172.341C1088.14 173.233 1087.46 173.943 1086.58 174.472C1085.72 174.994 1084.69 175.25 1083.52 175.239ZM1083.52 173.364C1084.23 173.364 1084.87 173.185 1085.44 172.827C1086.02 172.469 1086.47 171.989 1086.8 171.386C1087.13 170.784 1087.3 170.114 1087.3 169.375C1087.3 168.653 1087.14 167.997 1086.81 167.406C1086.5 166.81 1086.06 166.335 1085.49 165.983C1084.94 165.631 1084.3 165.455 1083.58 165.455C1083.04 165.455 1082.54 165.562 1082.08 165.778C1081.61 165.989 1081.2 166.278 1080.85 166.648C1080.5 167.017 1080.23 167.44 1080.03 167.918C1079.83 168.389 1079.73 168.886 1079.73 169.409C1079.73 170.102 1079.89 170.75 1080.22 171.352C1080.55 171.955 1081 172.44 1081.56 172.81C1082.14 173.179 1082.79 173.364 1083.52 173.364Z" fill="black"/>
<rect width="186.333" height="37" transform="translate(1183.67 148)" fill="white"/>
<path d="M1241.08 175V157.545H1251.55V159.42H1243.2V165.318H1250.77V167.193H1243.2V175H1241.08ZM1261 157.545V175H1258.89V159.761H1258.78L1254.52 162.591V160.443L1258.89 157.545H1261ZM1266.33 175V157.545H1276.79V159.42H1268.44V165.318H1276.01V167.193H1268.44V175H1266.33ZM1286.24 157.545V175H1284.13V159.761H1284.03L1279.76 162.591V160.443L1284.13 157.545H1286.24ZM1291.57 175V157.545H1302.03V159.42H1293.68V165.318H1301.25V167.193H1293.68V175H1291.57ZM1311.48 157.545V175H1309.37V159.761H1309.27L1305.01 162.591V160.443L1309.37 157.545H1311.48Z" fill="black"/>
</g>
<defs>
<clipPath id="clip0_27_471">
<rect width="1402" height="33" fill="white" transform="translate(0 148)"/>
</clipPath>
</defs>
</svg>
