<svg width="72" height="55" viewBox="0 0 72 55" fill="none" xmlns="http://www.w3.org/2000/svg">
<path d="M6.528 33.472C6.05867 33.472 5.54667 33.28 4.992 32.896C4.43733 32.5547 3.92533 32.128 3.456 31.616C3.02933 31.104 2.70933 30.656 2.496 30.272C3.008 29.76 3.34933 29.2267 3.52 28.672C3.86133 28.3307 4.16 27.9467 4.416 27.52C4.672 27.0933 4.88533 26.6667 5.056 26.24H5.248C5.41867 25.984 5.54667 25.7067 5.632 25.408C5.76 25.1093 5.90933 24.832 6.08 24.576L6.4 23.36L7.36 22.848L8.064 21.76L8.576 21.056L8.256 20.672L8.32 20.416L8.576 20.352L8.896 20.608L9.472 20.032H9.344L8.96 20.224L9.408 19.136V19.008L8.832 19.392C8.91733 19.136 9.04533 18.9013 9.216 18.688C9.38667 18.4747 9.62133 18.368 9.92 18.368L10.304 17.472L10.24 17.088L11.584 15.36L11.456 14.848C11.6267 14.592 11.776 14.3573 11.904 14.144C12.0747 13.888 12.2027 13.6107 12.288 13.312L13.12 13.056L13.184 12.8L12.864 12.096C12.864 11.456 13.2053 11.0933 13.888 11.008L13.504 10.816L13.44 10.752L13.952 10.24L14.016 10.496L14.464 10.048L14.144 9.6C14.3573 9.30133 14.4853 8.98133 14.528 8.64C14.5707 8.256 14.592 7.89333 14.592 7.552C15.4027 6.57067 15.8933 5.61067 16.064 4.672C16.2773 3.69067 16.4053 2.60267 16.448 1.408L16.064 1.088C15.04 1.13067 14.0587 1.30133 13.12 1.6C12.224 1.89867 11.3067 2.28267 10.368 2.752C9.38667 3.264 8.704 3.75467 8.32 4.224C7.936 4.69333 7.616 5.16267 7.36 5.632C7.14667 6.10133 6.69867 6.63467 6.016 7.232C5.71733 7.53067 5.26933 7.808 4.672 8.064C4.11733 8.27733 3.88267 8.68267 3.968 9.28C2.73067 9.70667 1.96267 10.4747 1.664 11.584C1.408 12.6933 1.28 13.8027 1.28 14.912C1.23733 14.9547 1.19467 15.04 1.152 15.168C1.10933 15.296 1.06667 15.4027 1.024 15.488C0.597333 15.104 0.32 14.4853 0.192 13.632C0.064 12.736 0 12.0107 0 11.456C0 10.5173 0.362667 9.536 1.088 8.512C1.81333 7.44533 2.752 6.42133 3.904 5.44C5.09867 4.416 6.35733 3.49867 7.68 2.688C9.00267 1.87733 10.2827 1.23733 11.52 0.768C12.7573 0.256 13.7813 0 14.592 0C15.4027 0 16.2987 0.192 17.28 0.576C18.304 0.917333 19.1787 1.42933 19.904 2.112C20.672 2.79467 21.056 3.584 21.056 4.48C21.056 5.16267 20.8213 5.97333 20.352 6.912C19.8827 7.808 19.4987 8.55467 19.2 9.152C19.072 9.23733 18.688 9.728 18.048 10.624C17.408 11.52 16.6613 12.6293 15.808 13.952C14.9547 15.232 14.1013 16.5333 13.248 17.856C12.3947 19.136 11.6693 20.2453 11.072 21.184C10.5173 22.1227 10.1973 22.6773 10.112 22.848C9.89867 23.1467 9.6 23.552 9.216 24.064C8.832 24.576 8.64 25.024 8.64 25.408L8.704 25.856C9.344 25.216 10.2187 24.2773 11.328 23.04C12.48 21.76 13.7387 20.3307 15.104 18.752C16.512 17.1733 17.9627 15.5947 19.456 14.016C20.992 12.3947 22.464 10.9013 23.872 9.536C25.3227 8.17067 26.6453 7.08267 27.84 6.272C29.0347 5.41867 29.9947 4.992 30.72 4.992C31.0187 4.992 31.488 5.01333 32.128 5.056C32.768 5.09867 33.344 5.22667 33.856 5.44C34.4107 5.61067 34.688 5.93067 34.688 6.4C34.688 6.69867 34.6453 6.99733 34.56 7.296C34.4747 7.552 34.4533 7.85067 34.496 8.192C34.0693 9.77067 33.6427 11.328 33.216 12.864C32.7893 14.4 32.0853 15.8507 31.104 17.216C30.8907 17.5147 30.784 17.9627 30.784 18.56C30.784 18.816 30.8053 18.9867 30.848 19.072C30.6347 19.4133 30.5707 19.7333 30.656 20.032C30.7413 20.288 30.5707 20.6507 30.144 21.12C30.144 21.4187 30.2293 21.6747 30.4 21.888C30.6133 22.0587 30.7627 22.272 30.848 22.528C31.4027 21.6747 32.1067 20.5867 32.96 19.264C33.8133 17.8987 34.752 16.4693 35.776 14.976C36.8427 13.4827 37.9307 12.032 39.04 10.624C40.192 9.216 41.3013 8.02133 42.368 7.04C43.4347 6.016 44.3947 5.33333 45.248 4.992C45.5893 4.992 46.1227 5.01333 46.848 5.056C47.5733 5.09867 48.2347 5.20533 48.832 5.376C49.472 5.54667 49.792 5.86667 49.792 6.336C49.792 7.232 49.6427 8.40533 49.344 9.856C49.088 11.264 48.7467 12.6507 48.32 14.016C47.8933 15.3813 47.4027 16.4267 46.848 17.152L47.424 18.112C47.168 18.5813 46.976 19.0933 46.848 19.648C46.72 20.16 46.464 20.6507 46.08 21.12C46.08 22.016 45.9733 22.912 45.76 23.808C45.5467 24.6613 45.44 25.5573 45.44 26.496C45.44 26.6667 45.4613 26.8587 45.504 27.072C45.5467 27.2853 45.5467 27.4987 45.504 27.712L45.888 28.544C46.1867 28.4587 46.4853 28.352 46.784 28.224C47.0827 28.0533 47.296 27.8187 47.424 27.52L47.808 27.456H48.32C48.9173 26.9013 49.5147 26.368 50.112 25.856C50.752 25.3013 51.3493 24.7467 51.904 24.192L52.096 24.384C51.4133 25.664 49.3264 27.2773 48.1317 28.6C46.9798 29.9227 44.9771 31.2667 44.1237 32.632C44.0384 32.6747 45.0587 32.4053 44.888 32.448C44.76 32.5333 44.6533 32.576 44.568 32.576C43.7573 32.576 43.9893 32.192 43.264 31.424C42.5813 30.6987 42.24 29.9307 42.24 29.12C42.24 27.2 42.368 25.2587 42.624 23.296C42.9227 21.2907 43.1787 19.3707 43.392 17.536L43.264 16.768C43.7333 15.1467 44.0747 13.504 44.288 11.84C44.5013 10.176 44.672 8.49067 44.8 6.784C44.416 6.99733 43.7973 7.59467 42.944 8.576C42.0907 9.55733 41.1093 10.7307 40 12.096C38.8907 13.4613 37.7813 14.8693 36.672 16.32C35.6053 17.728 34.6453 19.008 33.792 20.16C32.9387 21.312 32.3413 22.144 32 22.656C31.7867 22.9973 31.4667 23.5093 31.04 24.192C30.656 24.8747 30.2933 25.5573 29.952 26.24C29.6533 26.9227 29.4613 27.4773 29.376 27.904C29.3333 28.16 29.2907 28.544 29.248 29.056C29.248 29.5253 29.1627 29.9733 28.992 30.4C28.864 30.784 28.608 30.976 28.224 30.976C27.7973 30.976 27.4133 30.7627 27.072 30.336C26.7307 29.8667 26.56 29.4827 26.56 29.184C26.56 28.3733 26.6667 27.264 26.88 25.856C27.0933 24.4053 27.3067 22.9333 27.52 21.44C27.7333 19.9467 27.84 18.752 27.84 17.856C27.84 17.6427 27.8187 17.4507 27.776 17.28C27.776 17.1093 27.7547 16.96 27.712 16.832L28.032 16.384L28.352 14.272L28.736 14.4H28.928L29.248 13.952L29.056 13.44L28.288 13.696C28.3733 12.5013 28.5867 11.3493 28.928 10.24C29.312 9.13067 29.5467 8 29.632 6.848C28.5653 7.232 27.584 7.82933 26.688 8.64C25.8347 9.45067 25.0027 10.304 24.192 11.2C23.3813 12.096 22.5067 12.9067 21.568 13.632L21.376 14.016C21.0347 14.272 20.416 14.8693 19.52 15.808C18.6667 16.704 17.7067 17.7707 16.64 19.008C15.5733 20.2027 14.528 21.3973 13.504 22.592C12.5227 23.7867 11.712 24.832 11.072 25.728C10.4747 26.624 10.2187 27.2 10.304 27.456C9.96267 28.0107 9.6 28.544 9.216 29.056C8.832 29.568 8.46933 30.0587 8.128 30.528C8.21333 30.6987 8.256 30.848 8.256 30.976C8.256 31.36 8.04267 31.552 7.616 31.552C7.232 31.552 6.99733 31.68 6.912 31.936L7.36 32.512C7.31733 32.6827 7.21067 32.8747 7.04 33.088C6.912 33.344 6.74133 33.472 6.528 33.472ZM13.824 11.84C14.2507 11.6693 14.464 11.392 14.464 11.008V10.816L14.016 11.072V11.328L13.824 11.84ZM12.736 12.864L12.8 12.8L13.056 12.672V12.8L12.736 12.864ZM10.56 17.664L10.816 17.6L11.2 16.768H11.008L10.56 17.664ZM52.608 24L52.224 23.872L52.544 23.36L52.672 23.296L52.8 23.488L52.608 24Z" fill="white"/>
<path d="M37.9557 54.264C37.1877 54.264 36.3558 53.944 35.4598 53.304C34.6064 52.664 34.1797 51.9173 34.1797 51.064C34.1797 50.424 34.3078 49.8053 34.5638 49.208C34.8198 48.568 35.0971 47.9707 35.3957 47.416V47.224C35.7371 46.712 36.1638 46.2853 36.6758 45.944C36.8038 45.7307 36.9317 45.4747 37.0597 45.176C37.2304 44.8347 37.4437 44.6427 37.6997 44.6L38.0197 44.792C37.5504 45.3893 37.1024 46.072 36.6758 46.84L35.9077 50.808C36.1637 51.192 36.5691 51.384 37.1237 51.384C37.8917 51.384 38.8304 51.2347 39.9398 50.936C41.0491 50.68 42.1584 50.3813 43.2677 50.04C44.3771 49.6987 45.3158 49.4 46.0838 49.144V49.08C46.2971 49.08 46.5104 49.0587 46.7238 49.016C46.9798 48.9307 47.1504 48.76 47.2358 48.504L47.1717 48.312L47.6838 48.376C47.9398 48.248 48.1958 48.12 48.4518 47.992C48.7078 47.864 48.9851 47.7787 49.2837 47.736C49.4544 47.5653 49.9024 47.2027 50.6278 46.648C51.3531 46.0507 52.1637 45.432 53.0597 44.792C53.9557 44.1093 54.7664 43.512 55.4917 43C56.2171 42.488 56.6651 42.1893 56.8358 42.104L57.2837 41.4L57.7957 41.144V40.504C57.8811 39.864 57.5824 39.3733 56.8997 39.032C56.2171 38.648 55.3211 38.328 54.2118 38.072C53.1024 37.816 51.9078 37.56 50.6278 37.304C49.3904 37.048 48.1958 36.7067 47.0438 36.28C45.9344 35.8107 45.0171 35.2133 44.2918 34.488C43.6091 33.7627 43.2677 32.8027 43.2677 31.608L42.9478 31.8L42.8198 31.608C42.8198 30.712 43.3318 29.752 44.3558 28.728C45.4224 27.704 46.7664 26.7013 48.3877 25.72C50.0091 24.696 51.6944 23.7573 53.4437 22.904C55.2357 22.008 56.8784 21.2613 58.3717 20.664C59.9077 20.024 61.0811 19.576 61.8918 19.32C62.6171 19.4053 63.2784 19.576 63.8758 19.832C64.5158 20.0453 64.9211 20.5787 65.0918 21.432C65.5611 21.2613 65.7958 20.8987 65.7958 20.344C65.7958 20.0453 65.7744 19.768 65.7318 19.512C65.6891 19.2133 65.6038 18.9573 65.4758 18.744L65.7318 18.616C65.9451 18.616 66.3291 18.7013 66.8838 18.872C67.4811 19 68.1211 19.1707 68.8037 19.384C69.4864 19.5973 70.0838 19.8107 70.5957 20.024C71.1504 20.2373 71.4704 20.4293 71.5558 20.6L71.2998 21.56L70.1478 22.008L69.6998 21.816C69.2731 21.9867 69.0811 22.3493 69.1237 22.904C69.1664 23.4587 69.0384 23.7787 68.7398 23.864L68.1637 23.608V23.672L68.6118 24.568L68.4837 24.76L68.6758 25.08L68.4837 25.144L68.0358 24.952C67.8651 25.2933 67.7371 25.784 67.6517 26.424C67.5664 27.0213 67.2891 27.3413 66.8197 27.384C66.3504 27.8107 65.8384 28.3653 65.2838 29.048C64.7291 29.688 64.0891 30.0507 63.3638 30.136V30.008L63.5558 28.728L63.3638 28.408C63.4918 27.6827 63.6624 26.9147 63.8758 26.104C64.0891 25.2933 64.3237 24.5893 64.5798 23.992C64.2384 23.48 63.8331 23.0107 63.3638 22.584C62.9371 22.1573 62.4038 21.944 61.7638 21.944C60.9958 21.944 59.9291 22.1787 58.5638 22.648C57.1984 23.0747 55.7051 23.672 54.0838 24.44C52.5051 25.1653 51.0118 25.9973 49.6038 26.936C48.1958 27.8747 47.0651 28.8347 46.2118 29.816C45.3584 30.7973 43.9957 31.736 44.1237 32.632C43.9531 32.504 44.8464 32.3333 44.8037 32.12C44.7611 31.9067 44.7397 31.6933 44.7397 31.48C44.7397 31.2667 44.7397 31.0533 44.7397 30.84C44.7824 30.6267 44.8251 30.4347 44.8677 30.264C44.5691 30.6907 44.4198 31.1813 44.4198 31.736C44.4198 32.76 44.8464 33.5493 45.6997 34.104C46.5531 34.6587 47.6624 35.0853 49.0278 35.384C50.3931 35.6827 51.8437 35.96 53.3797 36.216C54.9157 36.4293 56.3664 36.6853 57.7318 36.984C59.0971 37.2827 60.2064 37.7307 61.0597 38.328C61.9131 38.8827 62.3398 39.672 62.3398 40.696C62.3398 41.2507 62.2118 41.7627 61.9557 42.232C61.6997 42.6587 61.4651 43.1067 61.2518 43.576C60.7824 43.7467 60.4838 43.9813 60.3558 44.28C60.2278 44.5787 60.0358 44.92 59.7798 45.304C59.4384 45.3893 58.9904 45.688 58.4357 46.2C57.9237 46.6693 57.5397 46.8827 57.2837 46.84C57.1131 46.9253 56.9211 47.0533 56.7077 47.224C56.5371 47.352 56.4091 47.5227 56.3237 47.736L56.1318 47.608C55.6624 48.248 54.8731 48.888 53.7638 49.528C52.6544 50.168 51.3531 50.7653 49.8597 51.32C48.4091 51.8747 46.9157 52.3653 45.3797 52.792C43.8864 53.2613 42.4784 53.624 41.1558 53.88C39.8331 54.136 38.7664 54.264 37.9557 54.264ZM62.6598 31.288L62.9798 30.328L63.2998 30.584L62.6598 31.288ZM58.8198 39.288L58.9478 38.968L58.7557 38.712L58.3717 38.904L58.8198 39.288ZM61.6357 41.656V41.528L61.2518 40.952L61.1878 41.272V41.528L61.6357 41.656ZM60.4198 42.744L60.8678 42.488L60.9318 41.912L60.8678 41.336C60.4411 41.7627 60.2064 42.2107 60.1637 42.68L60.4198 42.744ZM60.4837 43.64L61.1237 42.936V42.872L60.0998 43.192L60.2277 43.576L60.4837 43.64ZM58.6917 44.792L59.3958 44.728L59.9077 43.704L59.1398 44.408L58.8838 44.152L58.6917 44.728V44.792Z" fill="white"/>
</svg>
