<svg width="796" height="212" viewBox="0 0 796 212" fill="none" xmlns="http://www.w3.org/2000/svg">
<path d="M6.09375 37.8438L12.3438 20.25H14.5625L13.7656 24.875L7.14062 43H4.79688L6.09375 37.8438ZM6.59375 20.25L6.64062 38.0625L6 43H3.59375L2.98438 20.25H6.59375ZM15.6562 37.6562L21.125 20.25H24.8594L17.1562 43H14.6875L15.6562 37.6562ZM15.4219 20.25L16.1406 38.2031L15.8438 43H13.5938L12.7031 24.5156L13.2656 20.25H15.4219ZM31.2344 19L27.0781 43H23.5156L27.6875 19H31.2344ZM28.0781 33.9688H27.0469C27.1406 33.1042 27.3229 32.1927 27.5938 31.2344C27.875 30.276 28.2604 29.375 28.75 28.5312C29.2396 27.6875 29.8646 27.0104 30.625 26.5C31.3854 25.9792 32.3021 25.7396 33.375 25.7812C34.2396 25.8021 34.9323 26.0104 35.4531 26.4062C35.9844 26.7917 36.375 27.2969 36.625 27.9219C36.8854 28.5469 37.0417 29.2292 37.0938 29.9688C37.1458 30.7083 37.1302 31.4323 37.0469 32.1406L35.2344 43H31.6875L33.5 32.0938C33.5417 31.625 33.5521 31.1458 33.5312 30.6562C33.5104 30.1562 33.3802 29.7344 33.1406 29.3906C32.901 29.0469 32.4792 28.8698 31.875 28.8594C31.2188 28.8281 30.6615 28.9844 30.2031 29.3281C29.7552 29.6615 29.3854 30.0938 29.0938 30.625C28.8125 31.1562 28.5885 31.7188 28.4219 32.3125C28.2552 32.9062 28.1406 33.4583 28.0781 33.9688ZM39.5938 35.2344L39.7656 33.8906C39.8906 32.849 40.1406 31.8438 40.5156 30.875C40.8906 29.8958 41.3906 29.0156 42.0156 28.2344C42.651 27.4531 43.4115 26.8438 44.2969 26.4062C45.1927 25.9583 46.224 25.75 47.3906 25.7812C48.5156 25.8021 49.4479 26.0521 50.1875 26.5312C50.9271 27.0104 51.5052 27.6406 51.9219 28.4219C52.3385 29.2031 52.6094 30.0677 52.7344 31.0156C52.8594 31.9531 52.875 32.9062 52.7812 33.875L52.6094 35.2344C52.4844 36.2656 52.2344 37.2708 51.8594 38.25C51.4844 39.2292 50.9792 40.1042 50.3438 40.875C49.7188 41.6458 48.9583 42.2552 48.0625 42.7031C47.1771 43.1406 46.151 43.3438 44.9844 43.3125C43.849 43.2917 42.9115 43.0417 42.1719 42.5625C41.4427 42.0833 40.8698 41.4583 40.4531 40.6875C40.0469 39.9062 39.776 39.0417 39.6406 38.0938C39.5156 37.1458 39.5 36.1927 39.5938 35.2344ZM43.3281 33.875L43.1719 35.2656C43.1302 35.6823 43.099 36.1719 43.0781 36.7344C43.0677 37.2865 43.1198 37.8333 43.2344 38.375C43.3594 38.9062 43.5781 39.349 43.8906 39.7031C44.2135 40.0573 44.6719 40.2448 45.2656 40.2656C45.9427 40.3073 46.5104 40.1719 46.9688 39.8594C47.4375 39.5365 47.8125 39.1146 48.0938 38.5938C48.375 38.0729 48.5885 37.5156 48.7344 36.9219C48.8906 36.3281 49.0052 35.7604 49.0781 35.2188L49.2344 33.8594C49.2656 33.4427 49.2865 32.9531 49.2969 32.3906C49.3073 31.8281 49.25 31.2812 49.125 30.75C49.0104 30.2188 48.7969 29.776 48.4844 29.4219C48.1719 29.0573 47.7135 28.8594 47.1094 28.8281C46.4635 28.7865 45.9115 28.9323 45.4531 29.2656C45.0052 29.5885 44.6354 30.0104 44.3438 30.5312C44.0521 31.0521 43.8229 31.6146 43.6562 32.2188C43.5 32.8125 43.3906 33.3646 43.3281 33.875ZM69.7812 39.5625L71.125 31.0938C71.1667 30.6875 71.1562 30.3073 71.0938 29.9531C71.0417 29.5885 70.8958 29.2917 70.6562 29.0625C70.4271 28.8333 70.0729 28.7135 69.5938 28.7031C69.125 28.6927 68.724 28.7917 68.3906 29C68.0573 29.1979 67.7865 29.474 67.5781 29.8281C67.3802 30.1719 67.2448 30.5521 67.1719 30.9688L63.625 31C63.6875 30.1875 63.901 29.4583 64.2656 28.8125C64.6406 28.1562 65.1198 27.599 65.7031 27.1406C66.2865 26.6823 66.9375 26.3385 67.6562 26.1094C68.3854 25.8698 69.1406 25.7552 69.9219 25.7656C71.0156 25.776 71.9375 26.0104 72.6875 26.4688C73.4375 26.9167 73.9844 27.5417 74.3281 28.3438C74.6719 29.1458 74.7865 30.0938 74.6719 31.1875L73.3906 39.0938C73.2969 39.6979 73.2344 40.3073 73.2031 40.9219C73.1823 41.526 73.2344 42.1302 73.3594 42.7344L73.3438 43L69.8438 43.0156C69.6979 42.4531 69.6302 41.8802 69.6406 41.2969C69.651 40.7135 69.6979 40.1354 69.7812 39.5625ZM71.4375 32.7031L71.0469 35.0625L69.5156 35.0469C69.0365 35.0469 68.5781 35.1146 68.1406 35.25C67.7135 35.3854 67.3177 35.5833 66.9531 35.8438C66.599 36.1042 66.3073 36.4219 66.0781 36.7969C65.8594 37.1719 65.7188 37.6146 65.6562 38.125C65.6042 38.5 65.6094 38.8542 65.6719 39.1875C65.7448 39.5208 65.8906 39.7917 66.1094 40C66.3385 40.2083 66.6771 40.3177 67.125 40.3281C67.5938 40.3281 68.0469 40.2292 68.4844 40.0312C68.9219 39.8229 69.2917 39.5417 69.5938 39.1875C69.9062 38.8333 70.1042 38.4219 70.1875 37.9531L70.7969 39.5C70.6406 40.0104 70.4219 40.5 70.1406 40.9688C69.8698 41.4271 69.5365 41.8385 69.1406 42.2031C68.7552 42.5573 68.3177 42.8385 67.8281 43.0469C67.3385 43.2552 66.8073 43.3542 66.2344 43.3438C65.2969 43.3333 64.5052 43.1094 63.8594 42.6719C63.2135 42.224 62.7292 41.6354 62.4062 40.9062C62.0938 40.1667 61.9635 39.349 62.0156 38.4531C62.0677 37.4635 62.3021 36.6042 62.7188 35.875C63.1354 35.1458 63.6771 34.5469 64.3438 34.0781C65.0104 33.599 65.7656 33.25 66.6094 33.0312C67.4531 32.8021 68.3385 32.6875 69.2656 32.6875L71.4375 32.7031ZM82.1719 29.5312L79.8438 43H76.2969L79.2344 26.0938H82.6094L82.1719 29.5312ZM86.6719 25.9688L86.2188 29.5625C86.0104 29.5104 85.7969 29.474 85.5781 29.4531C85.3594 29.4219 85.1458 29.4062 84.9375 29.4062C84.3542 29.3958 83.8542 29.5 83.4375 29.7188C83.0208 29.9375 82.6667 30.2344 82.375 30.6094C82.0938 30.974 81.8542 31.3854 81.6562 31.8438C81.4688 32.3021 81.3177 32.776 81.2031 33.2656L80.4219 33.3125C80.5156 32.6354 80.6562 31.8594 80.8438 30.9844C81.0417 30.1094 81.3229 29.2708 81.6875 28.4688C82.0521 27.6562 82.5365 26.9948 83.1406 26.4844C83.7448 25.9635 84.5 25.7135 85.4062 25.7344C85.625 25.7448 85.8385 25.7708 86.0469 25.8125C86.2552 25.8542 86.4635 25.9062 86.6719 25.9688ZM92.3906 43.3125C91.276 43.2917 90.3333 43.0729 89.5625 42.6562C88.7917 42.2396 88.1823 41.6719 87.7344 40.9531C87.2969 40.2344 87 39.4219 86.8438 38.5156C86.6875 37.6094 86.6615 36.6458 86.7656 35.625L86.9688 34C87.0938 32.9583 87.3333 31.9427 87.6875 30.9531C88.0521 29.9531 88.5365 29.0573 89.1406 28.2656C89.7448 27.474 90.4844 26.8542 91.3594 26.4062C92.2448 25.9583 93.2812 25.7448 94.4688 25.7656C95.6146 25.7969 96.5365 26.0573 97.2344 26.5469C97.9427 27.026 98.4635 27.6562 98.7969 28.4375C99.1406 29.2188 99.3438 30.0833 99.4062 31.0312C99.4792 31.9792 99.4583 32.9271 99.3438 33.875L99.0781 35.7031H88.4062L88.8906 32.9531L95.9375 32.9688L96 32.5469C96.0833 32.0156 96.1042 31.4688 96.0625 30.9062C96.0312 30.3438 95.875 29.8646 95.5938 29.4688C95.3125 29.0729 94.8385 28.8542 94.1719 28.8125C93.474 28.7812 92.901 28.9271 92.4531 29.25C92.0052 29.5729 91.651 30.0052 91.3906 30.5469C91.1302 31.0885 90.9375 31.6667 90.8125 32.2812C90.6875 32.8854 90.5938 33.4583 90.5312 34L90.3281 35.6406C90.2656 36.1615 90.2396 36.6875 90.25 37.2188C90.2708 37.75 90.3542 38.2448 90.5 38.7031C90.6562 39.151 90.9115 39.5208 91.2656 39.8125C91.6302 40.0938 92.1406 40.2396 92.7969 40.25C93.5677 40.2708 94.2708 40.125 94.9062 39.8125C95.5417 39.4896 96.125 39.0729 96.6562 38.5625L98.0469 40.8125C97.6094 41.3958 97.0833 41.875 96.4688 42.25C95.8646 42.625 95.2083 42.8958 94.5 43.0625C93.8021 43.2396 93.099 43.3229 92.3906 43.3125ZM117.5 26.0938L117 28.9062H108.938L109.438 26.0938H117.5ZM112.344 21.9531H115.891L113.109 38.3281C113.078 38.599 113.062 38.875 113.062 39.1562C113.073 39.4271 113.141 39.6562 113.266 39.8438C113.391 40.0208 113.625 40.1146 113.969 40.125C114.146 40.125 114.323 40.1146 114.5 40.0938C114.688 40.0625 114.87 40.0312 115.047 40L114.75 42.9531C114.427 43.0781 114.094 43.1667 113.75 43.2188C113.406 43.2708 113.057 43.2917 112.703 43.2812C111.807 43.2708 111.12 43.0312 110.641 42.5625C110.172 42.0938 109.854 41.5 109.688 40.7812C109.531 40.0521 109.49 39.3021 109.562 38.5312L112.344 21.9531ZM124.953 19L120.797 43H117.234L121.406 19H124.953ZM121.797 33.9688H120.766C120.859 33.1042 121.042 32.1927 121.312 31.2344C121.594 30.276 121.979 29.375 122.469 28.5312C122.958 27.6875 123.583 27.0104 124.344 26.5C125.104 25.9792 126.021 25.7396 127.094 25.7812C127.958 25.8021 128.651 26.0104 129.172 26.4062C129.703 26.7917 130.094 27.2969 130.344 27.9219C130.604 28.5469 130.76 29.2292 130.812 29.9688C130.865 30.7083 130.849 31.4323 130.766 32.1406L128.953 43H125.406L127.219 32.0938C127.26 31.625 127.271 31.1458 127.25 30.6562C127.229 30.1562 127.099 29.7344 126.859 29.3906C126.62 29.0469 126.198 28.8698 125.594 28.8594C124.938 28.8281 124.38 28.9844 123.922 29.3281C123.474 29.6615 123.104 30.0938 122.812 30.625C122.531 31.1562 122.307 31.7188 122.141 32.3125C121.974 32.9062 121.859 33.4583 121.797 33.9688ZM138.953 43.3125C137.839 43.2917 136.896 43.0729 136.125 42.6562C135.354 42.2396 134.745 41.6719 134.297 40.9531C133.859 40.2344 133.562 39.4219 133.406 38.5156C133.25 37.6094 133.224 36.6458 133.328 35.625L133.531 34C133.656 32.9583 133.896 31.9427 134.25 30.9531C134.615 29.9531 135.099 29.0573 135.703 28.2656C136.307 27.474 137.047 26.8542 137.922 26.4062C138.807 25.9583 139.844 25.7448 141.031 25.7656C142.177 25.7969 143.099 26.0573 143.797 26.5469C144.505 27.026 145.026 27.6562 145.359 28.4375C145.703 29.2188 145.906 30.0833 145.969 31.0312C146.042 31.9792 146.021 32.9271 145.906 33.875L145.641 35.7031H134.969L135.453 32.9531L142.5 32.9688L142.562 32.5469C142.646 32.0156 142.667 31.4688 142.625 30.9062C142.594 30.3438 142.438 29.8646 142.156 29.4688C141.875 29.0729 141.401 28.8542 140.734 28.8125C140.036 28.7812 139.464 28.9271 139.016 29.25C138.568 29.5729 138.214 30.0052 137.953 30.5469C137.693 31.0885 137.5 31.6667 137.375 32.2812C137.25 32.8854 137.156 33.4583 137.094 34L136.891 35.6406C136.828 36.1615 136.802 36.6875 136.812 37.2188C136.833 37.75 136.917 38.2448 137.062 38.7031C137.219 39.151 137.474 39.5208 137.828 39.8125C138.193 40.0938 138.703 40.2396 139.359 40.25C140.13 40.2708 140.833 40.125 141.469 39.8125C142.104 39.4896 142.688 39.0729 143.219 38.5625L144.609 40.8125C144.172 41.3958 143.646 41.875 143.031 42.25C142.427 42.625 141.771 42.8958 141.062 43.0625C140.365 43.2396 139.661 43.3229 138.953 43.3125ZM168.844 20.25H172.547L169.859 36.0312C169.661 37.5104 169.214 38.8073 168.516 39.9219C167.828 41.026 166.917 41.8802 165.781 42.4844C164.646 43.0781 163.312 43.3594 161.781 43.3281C160.323 43.2969 159.115 42.974 158.156 42.3594C157.208 41.7344 156.531 40.8802 156.125 39.7969C155.719 38.7135 155.594 37.4635 155.75 36.0469L158.438 20.25H162.125L159.469 36.0625C159.385 36.7917 159.391 37.4635 159.484 38.0781C159.578 38.6823 159.823 39.1719 160.219 39.5469C160.615 39.9115 161.229 40.1094 162.062 40.1406C162.938 40.1719 163.656 40.0156 164.219 39.6719C164.781 39.3281 165.219 38.8438 165.531 38.2188C165.844 37.5833 166.057 36.8646 166.172 36.0625L168.844 20.25ZM180.5 38.4531C180.562 37.9844 180.458 37.5938 180.188 37.2812C179.927 36.9688 179.599 36.7031 179.203 36.4844C178.818 36.2552 178.453 36.0573 178.109 35.8906C177.557 35.6198 177.031 35.3333 176.531 35.0312C176.042 34.7292 175.604 34.3854 175.219 34C174.844 33.6042 174.552 33.151 174.344 32.6406C174.135 32.1302 174.052 31.5365 174.094 30.8594C174.135 30.0677 174.323 29.3594 174.656 28.7344C175 28.099 175.448 27.5625 176 27.125C176.552 26.6771 177.177 26.3385 177.875 26.1094C178.583 25.8698 179.312 25.7552 180.062 25.7656C181.104 25.7969 182.016 26.0312 182.797 26.4688C183.578 26.8958 184.172 27.5 184.578 28.2812C184.995 29.0521 185.193 29.9635 185.172 31.0156L181.625 31C181.646 30.5938 181.609 30.2135 181.516 29.8594C181.422 29.4948 181.24 29.1979 180.969 28.9688C180.708 28.7396 180.344 28.625 179.875 28.625C179.458 28.6354 179.083 28.7292 178.75 28.9062C178.417 29.0729 178.141 29.3125 177.922 29.625C177.703 29.9375 177.562 30.2969 177.5 30.7031C177.448 31.026 177.484 31.3125 177.609 31.5625C177.745 31.8021 177.932 32.0156 178.172 32.2031C178.411 32.3802 178.672 32.5365 178.953 32.6719C179.245 32.8073 179.505 32.9323 179.734 33.0469C180.505 33.4115 181.219 33.8125 181.875 34.25C182.542 34.6875 183.068 35.224 183.453 35.8594C183.839 36.4844 184 37.276 183.938 38.2344C183.896 39.0677 183.693 39.8073 183.328 40.4531C182.974 41.0885 182.505 41.6198 181.922 42.0469C181.339 42.474 180.682 42.7969 179.953 43.0156C179.224 43.2344 178.469 43.3333 177.688 43.3125C176.625 43.2812 175.688 43.0365 174.875 42.5781C174.062 42.1094 173.432 41.4688 172.984 40.6562C172.536 39.8438 172.323 38.901 172.344 37.8281L175.781 37.8438C175.771 38.3438 175.823 38.7917 175.938 39.1875C176.062 39.5833 176.281 39.8958 176.594 40.125C176.917 40.3438 177.349 40.4531 177.891 40.4531C178.328 40.4531 178.729 40.3802 179.094 40.2344C179.469 40.0885 179.776 39.8698 180.016 39.5781C180.266 39.276 180.427 38.901 180.5 38.4531ZM192.703 43.3125C191.589 43.2917 190.646 43.0729 189.875 42.6562C189.104 42.2396 188.495 41.6719 188.047 40.9531C187.609 40.2344 187.312 39.4219 187.156 38.5156C187 37.6094 186.974 36.6458 187.078 35.625L187.281 34C187.406 32.9583 187.646 31.9427 188 30.9531C188.365 29.9531 188.849 29.0573 189.453 28.2656C190.057 27.474 190.797 26.8542 191.672 26.4062C192.557 25.9583 193.594 25.7448 194.781 25.7656C195.927 25.7969 196.849 26.0573 197.547 26.5469C198.255 27.026 198.776 27.6562 199.109 28.4375C199.453 29.2188 199.656 30.0833 199.719 31.0312C199.792 31.9792 199.771 32.9271 199.656 33.875L199.391 35.7031H188.719L189.203 32.9531L196.25 32.9688L196.312 32.5469C196.396 32.0156 196.417 31.4688 196.375 30.9062C196.344 30.3438 196.188 29.8646 195.906 29.4688C195.625 29.0729 195.151 28.8542 194.484 28.8125C193.786 28.7812 193.214 28.9271 192.766 29.25C192.318 29.5729 191.964 30.0052 191.703 30.5469C191.443 31.0885 191.25 31.6667 191.125 32.2812C191 32.8854 190.906 33.4583 190.844 34L190.641 35.6406C190.578 36.1615 190.552 36.6875 190.562 37.2188C190.583 37.75 190.667 38.2448 190.812 38.7031C190.969 39.151 191.224 39.5208 191.578 39.8125C191.943 40.0938 192.453 40.2396 193.109 40.25C193.88 40.2708 194.583 40.125 195.219 39.8125C195.854 39.4896 196.438 39.0729 196.969 38.5625L198.359 40.8125C197.922 41.3958 197.396 41.875 196.781 42.25C196.177 42.625 195.521 42.8958 194.812 43.0625C194.115 43.2396 193.411 43.3229 192.703 43.3125ZM206.797 29.5312L204.469 43H200.922L203.859 26.0938H207.234L206.797 29.5312ZM211.297 25.9688L210.844 29.5625C210.635 29.5104 210.422 29.474 210.203 29.4531C209.984 29.4219 209.771 29.4062 209.562 29.4062C208.979 29.3958 208.479 29.5 208.062 29.7188C207.646 29.9375 207.292 30.2344 207 30.6094C206.719 30.974 206.479 31.3854 206.281 31.8438C206.094 32.3021 205.943 32.776 205.828 33.2656L205.047 33.3125C205.141 32.6354 205.281 31.8594 205.469 30.9844C205.667 30.1094 205.948 29.2708 206.312 28.4688C206.677 27.6562 207.161 26.9948 207.766 26.4844C208.37 25.9635 209.125 25.7135 210.031 25.7344C210.25 25.7448 210.464 25.7708 210.672 25.8125C210.88 25.8542 211.089 25.9062 211.297 25.9688ZM219.25 38.4531C219.312 37.9844 219.208 37.5938 218.938 37.2812C218.677 36.9688 218.349 36.7031 217.953 36.4844C217.568 36.2552 217.203 36.0573 216.859 35.8906C216.307 35.6198 215.781 35.3333 215.281 35.0312C214.792 34.7292 214.354 34.3854 213.969 34C213.594 33.6042 213.302 33.151 213.094 32.6406C212.885 32.1302 212.802 31.5365 212.844 30.8594C212.885 30.0677 213.073 29.3594 213.406 28.7344C213.75 28.099 214.198 27.5625 214.75 27.125C215.302 26.6771 215.927 26.3385 216.625 26.1094C217.333 25.8698 218.062 25.7552 218.812 25.7656C219.854 25.7969 220.766 26.0312 221.547 26.4688C222.328 26.8958 222.922 27.5 223.328 28.2812C223.745 29.0521 223.943 29.9635 223.922 31.0156L220.375 31C220.396 30.5938 220.359 30.2135 220.266 29.8594C220.172 29.4948 219.99 29.1979 219.719 28.9688C219.458 28.7396 219.094 28.625 218.625 28.625C218.208 28.6354 217.833 28.7292 217.5 28.9062C217.167 29.0729 216.891 29.3125 216.672 29.625C216.453 29.9375 216.312 30.2969 216.25 30.7031C216.198 31.026 216.234 31.3125 216.359 31.5625C216.495 31.8021 216.682 32.0156 216.922 32.2031C217.161 32.3802 217.422 32.5365 217.703 32.6719C217.995 32.8073 218.255 32.9323 218.484 33.0469C219.255 33.4115 219.969 33.8125 220.625 34.25C221.292 34.6875 221.818 35.224 222.203 35.8594C222.589 36.4844 222.75 37.276 222.688 38.2344C222.646 39.0677 222.443 39.8073 222.078 40.4531C221.724 41.0885 221.255 41.6198 220.672 42.0469C220.089 42.474 219.432 42.7969 218.703 43.0156C217.974 43.2344 217.219 43.3333 216.438 43.3125C215.375 43.2812 214.438 43.0365 213.625 42.5781C212.812 42.1094 212.182 41.4688 211.734 40.6562C211.286 39.8438 211.073 38.901 211.094 37.8281L214.531 37.8438C214.521 38.3438 214.573 38.7917 214.688 39.1875C214.812 39.5833 215.031 39.8958 215.344 40.125C215.667 40.3438 216.099 40.4531 216.641 40.4531C217.078 40.4531 217.479 40.3802 217.844 40.2344C218.219 40.0885 218.526 39.8698 218.766 39.5781C219.016 39.276 219.177 38.901 219.25 38.4531ZM239.703 36.2656L236.484 36.2812C236.568 35.4583 236.714 34.7031 236.922 34.0156C237.141 33.3281 237.443 32.6875 237.828 32.0938C238.224 31.4896 238.719 30.8854 239.312 30.2812C239.708 29.8646 240.104 29.4427 240.5 29.0156C240.896 28.5781 241.234 28.1146 241.516 27.625C241.797 27.125 241.979 26.5729 242.062 25.9688C242.115 25.5729 242.12 25.151 242.078 24.7031C242.036 24.2552 241.901 23.8698 241.672 23.5469C241.453 23.224 241.089 23.0521 240.578 23.0312C240.057 23.0312 239.62 23.1823 239.266 23.4844C238.922 23.7865 238.651 24.1615 238.453 24.6094C238.255 25.0573 238.12 25.5 238.047 25.9375L234.5 25.9531C234.615 24.7969 234.943 23.7552 235.484 22.8281C236.026 21.901 236.75 21.1771 237.656 20.6562C238.573 20.1354 239.641 19.8906 240.859 19.9219C242.016 19.9531 242.969 20.2344 243.719 20.7656C244.479 21.2865 245.026 21.9896 245.359 22.875C245.703 23.7604 245.833 24.75 245.75 25.8438C245.656 26.7917 245.396 27.6458 244.969 28.4062C244.542 29.1667 244.021 29.875 243.406 30.5312C242.792 31.1771 242.161 31.8177 241.516 32.4531C240.964 32.9844 240.552 33.5677 240.281 34.2031C240.01 34.8385 239.818 35.526 239.703 36.2656ZM235.266 41.2031C235.266 40.6302 235.448 40.1302 235.812 39.7031C236.177 39.276 236.651 39.0573 237.234 39.0469C237.828 39.0365 238.302 39.2344 238.656 39.6406C239.01 40.0365 239.188 40.5208 239.188 41.0938C239.177 41.6667 238.99 42.1615 238.625 42.5781C238.271 42.9844 237.802 43.1979 237.219 43.2188C236.625 43.2292 236.151 43.0365 235.797 42.6406C235.443 42.2448 235.266 41.7656 235.266 41.2031Z" fill="#124851"/>
<path d="M28 112.5H458" stroke="#EE5A2C"/>
<circle opacity="0.9" cx="546" cy="103" r="90" fill="#E86A42"/>
<circle opacity="0.8" cx="706" cy="103" r="90" fill="#FC9A7B"/>
<path d="M670.544 121.337L666.308 133H664.576L669.454 120.203H670.57L670.544 121.337ZM674.095 133L669.85 121.337L669.823 120.203H670.939L675.835 133H674.095ZM673.875 128.263V129.651H666.686V128.263H673.875ZM683.464 123.49H684.94V132.798C684.94 133.636 684.771 134.351 684.431 134.942C684.091 135.534 683.616 135.982 683.007 136.287C682.403 136.598 681.706 136.753 680.915 136.753C680.587 136.753 680.2 136.7 679.755 136.595C679.315 136.495 678.882 136.322 678.454 136.076C678.032 135.836 677.678 135.511 677.391 135.101L678.243 134.134C678.642 134.614 679.058 134.948 679.491 135.136C679.931 135.323 680.364 135.417 680.792 135.417C681.308 135.417 681.753 135.32 682.128 135.127C682.503 134.934 682.793 134.646 682.998 134.266C683.209 133.891 683.314 133.428 683.314 132.877V125.582L683.464 123.49ZM676.916 128.351V128.166C676.916 127.439 677.001 126.78 677.171 126.188C677.347 125.591 677.596 125.078 677.918 124.65C678.246 124.223 678.642 123.895 679.104 123.666C679.567 123.432 680.089 123.314 680.669 123.314C681.267 123.314 681.788 123.42 682.233 123.631C682.685 123.836 683.065 124.138 683.376 124.536C683.692 124.929 683.941 125.403 684.123 125.96C684.305 126.517 684.431 127.146 684.501 127.85V128.658C684.437 129.355 684.311 129.982 684.123 130.539C683.941 131.096 683.692 131.57 683.376 131.963C683.065 132.355 682.685 132.657 682.233 132.868C681.782 133.073 681.255 133.176 680.651 133.176C680.083 133.176 679.567 133.056 679.104 132.815C678.647 132.575 678.255 132.238 677.927 131.805C677.599 131.371 677.347 130.861 677.171 130.275C677.001 129.684 676.916 129.042 676.916 128.351ZM678.542 128.166V128.351C678.542 128.825 678.589 129.271 678.683 129.687C678.782 130.103 678.932 130.469 679.131 130.785C679.336 131.102 679.597 131.351 679.913 131.532C680.229 131.708 680.607 131.796 681.047 131.796C681.586 131.796 682.031 131.682 682.383 131.453C682.734 131.225 683.013 130.923 683.218 130.548C683.429 130.173 683.593 129.766 683.71 129.326V127.208C683.646 126.886 683.546 126.575 683.411 126.276C683.282 125.972 683.112 125.702 682.901 125.468C682.696 125.228 682.441 125.037 682.137 124.896C681.832 124.756 681.475 124.686 681.064 124.686C680.619 124.686 680.235 124.779 679.913 124.967C679.597 125.148 679.336 125.4 679.131 125.723C678.932 126.039 678.782 126.408 678.683 126.83C678.589 127.246 678.542 127.691 678.542 128.166ZM691.356 133.176C690.694 133.176 690.094 133.064 689.555 132.842C689.021 132.613 688.562 132.294 688.175 131.884C687.794 131.474 687.501 130.987 687.296 130.425C687.091 129.862 686.988 129.247 686.988 128.579V128.21C686.988 127.437 687.103 126.748 687.331 126.145C687.56 125.535 687.87 125.02 688.263 124.598C688.655 124.176 689.101 123.856 689.599 123.64C690.097 123.423 690.612 123.314 691.146 123.314C691.825 123.314 692.411 123.432 692.903 123.666C693.401 123.9 693.809 124.229 694.125 124.65C694.441 125.066 694.676 125.559 694.828 126.127C694.98 126.689 695.057 127.305 695.057 127.973V128.702H687.955V127.375H693.431V127.252C693.407 126.83 693.319 126.42 693.167 126.021C693.021 125.623 692.786 125.295 692.464 125.037C692.142 124.779 691.702 124.65 691.146 124.65C690.776 124.65 690.437 124.729 690.126 124.888C689.815 125.04 689.549 125.269 689.326 125.573C689.104 125.878 688.931 126.25 688.808 126.689C688.685 127.129 688.623 127.636 688.623 128.21V128.579C688.623 129.03 688.685 129.455 688.808 129.854C688.937 130.246 689.121 130.592 689.361 130.891C689.607 131.189 689.903 131.424 690.249 131.594C690.601 131.764 690.999 131.849 691.444 131.849C692.019 131.849 692.505 131.731 692.903 131.497C693.302 131.263 693.65 130.949 693.949 130.557L694.934 131.339C694.729 131.649 694.468 131.945 694.151 132.227C693.835 132.508 693.445 132.736 692.982 132.912C692.525 133.088 691.983 133.176 691.356 133.176ZM711.123 126.628V131.312C710.965 131.547 710.713 131.811 710.367 132.104C710.021 132.391 709.544 132.643 708.935 132.859C708.331 133.07 707.552 133.176 706.597 133.176C705.817 133.176 705.1 133.041 704.443 132.771C703.793 132.496 703.228 132.098 702.747 131.576C702.272 131.049 701.903 130.41 701.64 129.66C701.382 128.904 701.253 128.049 701.253 127.094V126.101C701.253 125.146 701.364 124.293 701.587 123.543C701.815 122.793 702.149 122.157 702.589 121.636C703.028 121.108 703.567 120.71 704.206 120.44C704.845 120.165 705.577 120.027 706.403 120.027C707.382 120.027 708.199 120.197 708.855 120.537C709.518 120.871 710.033 121.334 710.402 121.926C710.777 122.518 711.018 123.191 711.123 123.947H709.427C709.351 123.484 709.198 123.062 708.97 122.682C708.747 122.301 708.428 121.996 708.012 121.768C707.596 121.533 707.06 121.416 706.403 121.416C705.812 121.416 705.299 121.524 704.865 121.741C704.432 121.958 704.074 122.269 703.793 122.673C703.512 123.077 703.301 123.566 703.16 124.141C703.025 124.715 702.958 125.362 702.958 126.083V127.094C702.958 127.832 703.043 128.491 703.213 129.071C703.389 129.651 703.638 130.146 703.96 130.557C704.282 130.961 704.666 131.269 705.111 131.479C705.562 131.69 706.061 131.796 706.605 131.796C707.209 131.796 707.698 131.746 708.073 131.646C708.448 131.541 708.741 131.418 708.952 131.277C709.163 131.131 709.324 130.993 709.436 130.864V127.999H706.474V126.628H711.123ZM715.315 124.984V133H713.689V123.49H715.271L715.315 124.984ZM718.286 123.438L718.277 124.949C718.143 124.92 718.014 124.902 717.891 124.896C717.773 124.885 717.639 124.879 717.486 124.879C717.111 124.879 716.78 124.938 716.493 125.055C716.206 125.172 715.963 125.336 715.764 125.547C715.564 125.758 715.406 126.01 715.289 126.303C715.178 126.59 715.104 126.906 715.069 127.252L714.612 127.516C714.612 126.941 714.668 126.402 714.779 125.898C714.896 125.395 715.075 124.949 715.315 124.562C715.556 124.17 715.86 123.865 716.229 123.648C716.604 123.426 717.05 123.314 717.565 123.314C717.683 123.314 717.817 123.329 717.97 123.358C718.122 123.382 718.228 123.408 718.286 123.438ZM719.183 128.351V128.148C719.183 127.463 719.282 126.827 719.481 126.241C719.681 125.649 719.968 125.137 720.343 124.703C720.718 124.264 721.172 123.924 721.705 123.684C722.238 123.438 722.836 123.314 723.498 123.314C724.166 123.314 724.767 123.438 725.3 123.684C725.839 123.924 726.296 124.264 726.671 124.703C727.052 125.137 727.342 125.649 727.541 126.241C727.74 126.827 727.84 127.463 727.84 128.148V128.351C727.84 129.036 727.74 129.672 727.541 130.258C727.342 130.844 727.052 131.356 726.671 131.796C726.296 132.229 725.842 132.569 725.309 132.815C724.781 133.056 724.184 133.176 723.516 133.176C722.848 133.176 722.247 133.056 721.714 132.815C721.181 132.569 720.724 132.229 720.343 131.796C719.968 131.356 719.681 130.844 719.481 130.258C719.282 129.672 719.183 129.036 719.183 128.351ZM720.809 128.148V128.351C720.809 128.825 720.864 129.273 720.976 129.695C721.087 130.111 721.254 130.48 721.477 130.803C721.705 131.125 721.989 131.38 722.329 131.567C722.669 131.749 723.064 131.84 723.516 131.84C723.961 131.84 724.351 131.749 724.685 131.567C725.024 131.38 725.306 131.125 725.528 130.803C725.751 130.48 725.918 130.111 726.029 129.695C726.146 129.273 726.205 128.825 726.205 128.351V128.148C726.205 127.68 726.146 127.237 726.029 126.821C725.918 126.399 725.748 126.027 725.52 125.705C725.297 125.377 725.016 125.119 724.676 124.932C724.342 124.744 723.949 124.65 723.498 124.65C723.053 124.65 722.66 124.744 722.32 124.932C721.986 125.119 721.705 125.377 721.477 125.705C721.254 126.027 721.087 126.399 720.976 126.821C720.864 127.237 720.809 127.68 720.809 128.148ZM735.697 130.803V123.49H737.332V133H735.776L735.697 130.803ZM736.005 128.799L736.682 128.781C736.682 129.414 736.614 130 736.479 130.539C736.351 131.072 736.14 131.535 735.847 131.928C735.554 132.32 735.17 132.628 734.695 132.851C734.221 133.067 733.644 133.176 732.964 133.176C732.501 133.176 732.076 133.108 731.689 132.974C731.309 132.839 730.98 132.631 730.705 132.35C730.43 132.068 730.216 131.702 730.063 131.251C729.917 130.8 729.844 130.258 729.844 129.625V123.49H731.47V129.643C731.47 130.07 731.517 130.425 731.61 130.706C731.71 130.981 731.842 131.201 732.006 131.365C732.176 131.523 732.363 131.635 732.568 131.699C732.779 131.764 732.996 131.796 733.219 131.796C733.91 131.796 734.458 131.664 734.862 131.4C735.267 131.131 735.557 130.771 735.732 130.319C735.914 129.862 736.005 129.355 736.005 128.799ZM741.437 125.318V136.656H739.802V123.49H741.296L741.437 125.318ZM747.844 128.166V128.351C747.844 129.042 747.762 129.684 747.598 130.275C747.434 130.861 747.193 131.371 746.877 131.805C746.566 132.238 746.183 132.575 745.726 132.815C745.269 133.056 744.744 133.176 744.152 133.176C743.549 133.176 743.016 133.076 742.553 132.877C742.09 132.678 741.697 132.388 741.375 132.007C741.053 131.626 740.795 131.169 740.602 130.636C740.414 130.103 740.285 129.502 740.215 128.834V127.85C740.285 127.146 740.417 126.517 740.61 125.96C740.804 125.403 741.059 124.929 741.375 124.536C741.697 124.138 742.087 123.836 742.544 123.631C743.001 123.42 743.528 123.314 744.126 123.314C744.724 123.314 745.254 123.432 745.717 123.666C746.18 123.895 746.569 124.223 746.886 124.65C747.202 125.078 747.439 125.591 747.598 126.188C747.762 126.78 747.844 127.439 747.844 128.166ZM746.209 128.351V128.166C746.209 127.691 746.159 127.246 746.06 126.83C745.96 126.408 745.805 126.039 745.594 125.723C745.389 125.4 745.125 125.148 744.803 124.967C744.48 124.779 744.097 124.686 743.651 124.686C743.241 124.686 742.884 124.756 742.579 124.896C742.28 125.037 742.025 125.228 741.814 125.468C741.604 125.702 741.431 125.972 741.296 126.276C741.167 126.575 741.07 126.886 741.006 127.208V129.484C741.123 129.895 741.287 130.281 741.498 130.645C741.709 131.002 741.99 131.292 742.342 131.515C742.693 131.731 743.136 131.84 743.669 131.84C744.108 131.84 744.486 131.749 744.803 131.567C745.125 131.38 745.389 131.125 745.594 130.803C745.805 130.48 745.96 130.111 746.06 129.695C746.159 129.273 746.209 128.825 746.209 128.351ZM698.572 141.186H698.713V142.565H698.572C697.711 142.565 696.99 142.706 696.41 142.987C695.83 143.263 695.37 143.635 695.03 144.104C694.69 144.566 694.444 145.088 694.292 145.668C694.146 146.248 694.072 146.837 694.072 147.435V149.315C694.072 149.884 694.14 150.388 694.274 150.827C694.409 151.261 694.594 151.627 694.828 151.926C695.062 152.225 695.326 152.45 695.619 152.603C695.918 152.755 696.229 152.831 696.551 152.831C696.926 152.831 697.26 152.761 697.553 152.62C697.846 152.474 698.092 152.271 698.291 152.014C698.496 151.75 698.651 151.439 698.757 151.082C698.862 150.725 698.915 150.332 698.915 149.904C698.915 149.523 698.868 149.157 698.774 148.806C698.681 148.448 698.537 148.132 698.344 147.856C698.15 147.575 697.907 147.355 697.614 147.197C697.327 147.033 696.984 146.951 696.586 146.951C696.135 146.951 695.713 147.062 695.32 147.285C694.934 147.502 694.614 147.789 694.362 148.146C694.116 148.498 693.976 148.882 693.94 149.298L693.079 149.289C693.161 148.633 693.313 148.073 693.536 147.61C693.765 147.142 694.046 146.761 694.38 146.468C694.72 146.169 695.098 145.952 695.514 145.817C695.936 145.677 696.381 145.606 696.85 145.606C697.488 145.606 698.039 145.727 698.502 145.967C698.965 146.207 699.346 146.529 699.645 146.934C699.943 147.332 700.163 147.783 700.304 148.287C700.45 148.785 700.523 149.298 700.523 149.825C700.523 150.429 700.438 150.994 700.269 151.521C700.099 152.049 699.844 152.512 699.504 152.91C699.17 153.309 698.757 153.619 698.265 153.842C697.772 154.064 697.201 154.176 696.551 154.176C695.859 154.176 695.256 154.035 694.74 153.754C694.225 153.467 693.797 153.086 693.457 152.611C693.117 152.137 692.862 151.609 692.692 151.029C692.522 150.449 692.438 149.86 692.438 149.263V148.498C692.438 147.596 692.528 146.711 692.71 145.844C692.892 144.977 693.205 144.191 693.65 143.488C694.102 142.785 694.726 142.226 695.522 141.81C696.319 141.394 697.336 141.186 698.572 141.186ZM704.514 147.909L703.213 147.575L703.854 141.203H710.42V142.706H705.234L704.848 146.187C705.082 146.052 705.378 145.926 705.735 145.809C706.099 145.691 706.515 145.633 706.983 145.633C707.575 145.633 708.105 145.735 708.574 145.94C709.043 146.14 709.441 146.427 709.77 146.802C710.104 147.177 710.358 147.628 710.534 148.155C710.71 148.683 710.798 149.271 710.798 149.922C710.798 150.537 710.713 151.103 710.543 151.618C710.379 152.134 710.13 152.585 709.796 152.972C709.462 153.353 709.04 153.648 708.53 153.859C708.026 154.07 707.432 154.176 706.746 154.176C706.23 154.176 705.741 154.105 705.278 153.965C704.821 153.818 704.411 153.599 704.048 153.306C703.69 153.007 703.397 152.638 703.169 152.198C702.946 151.753 702.806 151.231 702.747 150.634H704.294C704.364 151.114 704.505 151.519 704.716 151.847C704.927 152.175 705.202 152.424 705.542 152.594C705.888 152.758 706.289 152.84 706.746 152.84C707.133 152.84 707.476 152.772 707.774 152.638C708.073 152.503 708.325 152.31 708.53 152.058C708.735 151.806 708.891 151.501 708.996 151.144C709.107 150.786 709.163 150.385 709.163 149.939C709.163 149.535 709.107 149.16 708.996 148.814C708.885 148.469 708.718 148.167 708.495 147.909C708.278 147.651 708.012 147.452 707.695 147.312C707.379 147.165 707.016 147.092 706.605 147.092C706.061 147.092 705.647 147.165 705.366 147.312C705.091 147.458 704.807 147.657 704.514 147.909ZM720.976 147.136V148.665H712.204V147.136H720.976ZM717.407 143.4V152.717H715.781V143.4H717.407Z" fill="#222222"/>
<path d="M500.539 89.5684V95.2031C500.318 95.4701 499.976 95.7598 499.514 96.0723C499.051 96.3783 498.456 96.6419 497.727 96.8633C496.997 97.0846 496.115 97.1953 495.08 97.1953C494.162 97.1953 493.326 97.0456 492.57 96.7461C491.815 96.4401 491.164 95.9941 490.617 95.4082C490.077 94.8223 489.66 94.1061 489.367 93.2598C489.074 92.4069 488.928 91.4336 488.928 90.3398V89.4512C488.928 88.3574 489.068 87.3841 489.348 86.5312C489.634 85.6784 490.041 84.959 490.568 84.373C491.096 83.7871 491.724 83.3411 492.453 83.0352C493.182 82.7292 493.993 82.5762 494.885 82.5762C496.122 82.5762 497.137 82.778 497.932 83.1816C498.726 83.5788 499.331 84.1322 499.748 84.8418C500.171 85.5449 500.432 86.3522 500.529 87.2637H497.688C497.616 86.7819 497.479 86.362 497.277 86.0039C497.076 85.6458 496.786 85.3659 496.408 85.1641C496.037 84.9622 495.555 84.8613 494.963 84.8613C494.475 84.8613 494.038 84.9622 493.654 85.1641C493.277 85.3594 492.958 85.6491 492.697 86.0332C492.437 86.4173 492.238 86.8926 492.102 87.459C491.965 88.0254 491.896 88.6829 491.896 89.4316V90.3398C491.896 91.082 491.968 91.7396 492.111 92.3125C492.255 92.8789 492.466 93.3574 492.746 93.748C493.033 94.1322 493.384 94.4219 493.801 94.6172C494.217 94.8125 494.702 94.9102 495.256 94.9102C495.718 94.9102 496.102 94.8711 496.408 94.793C496.721 94.7148 496.971 94.6204 497.16 94.5098C497.355 94.3926 497.505 94.2819 497.609 94.1777V91.6582H494.934V89.5684H500.539ZM507.59 97.1953C506.77 97.1953 506.034 97.0651 505.383 96.8047C504.732 96.5378 504.178 96.1699 503.723 95.7012C503.273 95.2324 502.928 94.6888 502.688 94.0703C502.447 93.4453 502.326 92.7812 502.326 92.0781V91.6875C502.326 90.8867 502.44 90.1543 502.668 89.4902C502.896 88.8262 503.221 88.25 503.645 87.7617C504.074 87.2734 504.595 86.8991 505.207 86.6387C505.819 86.3717 506.509 86.2383 507.277 86.2383C508.026 86.2383 508.69 86.362 509.27 86.6094C509.849 86.8568 510.334 87.2083 510.725 87.6641C511.122 88.1198 511.421 88.6667 511.623 89.3047C511.825 89.9362 511.926 90.6393 511.926 91.4141V92.5859H503.527V90.7109H509.162V90.4961C509.162 90.1055 509.09 89.7572 508.947 89.4512C508.811 89.1387 508.602 88.8913 508.322 88.709C508.042 88.5267 507.684 88.4355 507.248 88.4355C506.877 88.4355 506.558 88.5169 506.291 88.6797C506.024 88.8424 505.806 89.0703 505.637 89.3633C505.474 89.6562 505.35 90.0013 505.266 90.3984C505.188 90.7891 505.148 91.2188 505.148 91.6875V92.0781C505.148 92.5013 505.207 92.8919 505.324 93.25C505.448 93.6081 505.62 93.9173 505.842 94.1777C506.07 94.4382 506.343 94.64 506.662 94.7832C506.988 94.9264 507.355 94.998 507.766 94.998C508.273 94.998 508.745 94.9004 509.182 94.7051C509.624 94.5033 510.005 94.2005 510.324 93.7969L511.691 95.2812C511.47 95.6003 511.167 95.9062 510.783 96.1992C510.406 96.4922 509.95 96.7331 509.416 96.9219C508.882 97.1042 508.273 97.1953 507.59 97.1953ZM516.281 88.6895V97H513.469V86.4336H516.105L516.281 88.6895ZM515.871 91.3457H515.109C515.109 90.5645 515.21 89.8613 515.412 89.2363C515.614 88.6048 515.897 88.0677 516.262 87.625C516.626 87.1758 517.059 86.834 517.561 86.5996C518.068 86.3587 518.635 86.2383 519.26 86.2383C519.755 86.2383 520.207 86.3099 520.617 86.4531C521.027 86.5964 521.379 86.8242 521.672 87.1367C521.971 87.4492 522.199 87.8626 522.355 88.377C522.518 88.8913 522.6 89.5195 522.6 90.2617V97H519.768V90.252C519.768 89.7832 519.702 89.4186 519.572 89.1582C519.442 88.8978 519.25 88.7155 518.996 88.6113C518.749 88.5007 518.443 88.4453 518.078 88.4453C517.701 88.4453 517.372 88.5202 517.092 88.6699C516.818 88.8197 516.59 89.028 516.408 89.2949C516.232 89.5553 516.099 89.8613 516.008 90.2129C515.917 90.5645 515.871 90.9421 515.871 91.3457ZM529.602 97.1953C528.781 97.1953 528.046 97.0651 527.395 96.8047C526.743 96.5378 526.19 96.1699 525.734 95.7012C525.285 95.2324 524.94 94.6888 524.699 94.0703C524.458 93.4453 524.338 92.7812 524.338 92.0781V91.6875C524.338 90.8867 524.452 90.1543 524.68 89.4902C524.908 88.8262 525.233 88.25 525.656 87.7617C526.086 87.2734 526.607 86.8991 527.219 86.6387C527.831 86.3717 528.521 86.2383 529.289 86.2383C530.038 86.2383 530.702 86.362 531.281 86.6094C531.861 86.8568 532.346 87.2083 532.736 87.6641C533.133 88.1198 533.433 88.6667 533.635 89.3047C533.837 89.9362 533.938 90.6393 533.938 91.4141V92.5859H525.539V90.7109H531.174V90.4961C531.174 90.1055 531.102 89.7572 530.959 89.4512C530.822 89.1387 530.614 88.8913 530.334 88.709C530.054 88.5267 529.696 88.4355 529.26 88.4355C528.889 88.4355 528.57 88.5169 528.303 88.6797C528.036 88.8424 527.818 89.0703 527.648 89.3633C527.486 89.6562 527.362 90.0013 527.277 90.3984C527.199 90.7891 527.16 91.2188 527.16 91.6875V92.0781C527.16 92.5013 527.219 92.8919 527.336 93.25C527.46 93.6081 527.632 93.9173 527.854 94.1777C528.081 94.4382 528.355 94.64 528.674 94.7832C528.999 94.9264 529.367 94.998 529.777 94.998C530.285 94.998 530.757 94.9004 531.193 94.7051C531.636 94.5033 532.017 94.2005 532.336 93.7969L533.703 95.2812C533.482 95.6003 533.179 95.9062 532.795 96.1992C532.417 96.4922 531.962 96.7331 531.428 96.9219C530.894 97.1042 530.285 97.1953 529.602 97.1953ZM538.352 88.7383V97H535.539V86.4336H538.186L538.352 88.7383ZM541.535 86.3652L541.486 88.9727C541.35 88.9531 541.184 88.9368 540.988 88.9238C540.799 88.9043 540.627 88.8945 540.471 88.8945C540.074 88.8945 539.729 88.9466 539.436 89.0508C539.149 89.1484 538.908 89.2949 538.713 89.4902C538.524 89.6855 538.381 89.9232 538.283 90.2031C538.192 90.4831 538.14 90.8021 538.127 91.1602L537.561 90.9844C537.561 90.3008 537.629 89.6725 537.766 89.0996C537.902 88.5202 538.101 88.0156 538.361 87.5859C538.628 87.1562 538.954 86.8242 539.338 86.5898C539.722 86.3555 540.161 86.2383 540.656 86.2383C540.812 86.2383 540.972 86.2513 541.135 86.2773C541.298 86.2969 541.431 86.3262 541.535 86.3652ZM548.234 94.6172V89.9102C548.234 89.5716 548.179 89.2819 548.068 89.041C547.958 88.7936 547.785 88.6016 547.551 88.4648C547.323 88.3281 547.027 88.2598 546.662 88.2598C546.35 88.2598 546.079 88.3151 545.852 88.4258C545.624 88.5299 545.448 88.6829 545.324 88.8848C545.201 89.0801 545.139 89.3112 545.139 89.5781H542.326C542.326 89.1289 542.43 88.7025 542.639 88.2988C542.847 87.8952 543.15 87.5404 543.547 87.2344C543.944 86.9219 544.416 86.6777 544.963 86.502C545.516 86.3262 546.135 86.2383 546.818 86.2383C547.639 86.2383 548.368 86.375 549.006 86.6484C549.644 86.9219 550.145 87.332 550.51 87.8789C550.881 88.4258 551.066 89.1094 551.066 89.9297V94.4512C551.066 95.0306 551.102 95.5059 551.174 95.877C551.245 96.2415 551.35 96.5605 551.486 96.834V97H548.645C548.508 96.7135 548.404 96.3555 548.332 95.9258C548.267 95.4896 548.234 95.0534 548.234 94.6172ZM548.605 90.5645L548.625 92.1562H547.053C546.682 92.1562 546.359 92.1986 546.086 92.2832C545.812 92.3678 545.588 92.4883 545.412 92.6445C545.236 92.7943 545.106 92.9701 545.021 93.1719C544.943 93.3737 544.904 93.5951 544.904 93.8359C544.904 94.0768 544.96 94.2949 545.07 94.4902C545.181 94.679 545.34 94.8288 545.549 94.9395C545.757 95.0436 546.001 95.0957 546.281 95.0957C546.704 95.0957 547.072 95.0111 547.385 94.8418C547.697 94.6725 547.938 94.4642 548.107 94.2168C548.283 93.9694 548.374 93.735 548.381 93.5137L549.123 94.7051C549.019 94.972 548.876 95.2487 548.693 95.5352C548.518 95.8216 548.293 96.0918 548.02 96.3457C547.746 96.5931 547.417 96.7982 547.033 96.9609C546.649 97.1172 546.193 97.1953 545.666 97.1953C544.995 97.1953 544.387 97.0618 543.84 96.7949C543.299 96.5215 542.87 96.1471 542.551 95.6719C542.238 95.1901 542.082 94.6432 542.082 94.0312C542.082 93.4779 542.186 92.9863 542.395 92.5566C542.603 92.127 542.909 91.7656 543.312 91.4727C543.723 91.1732 544.234 90.9486 544.846 90.7988C545.458 90.6426 546.167 90.5645 546.975 90.5645H548.605ZM558.41 86.4336V88.4258H552.258V86.4336H558.41ZM553.781 83.8262H556.594V93.8164C556.594 94.1224 556.633 94.3568 556.711 94.5195C556.796 94.6823 556.919 94.7962 557.082 94.8613C557.245 94.9199 557.45 94.9492 557.697 94.9492C557.873 94.9492 558.029 94.9427 558.166 94.9297C558.309 94.9102 558.43 94.8906 558.527 94.8711L558.537 96.9414C558.296 97.0195 558.036 97.0814 557.756 97.127C557.476 97.1725 557.167 97.1953 556.828 97.1953C556.21 97.1953 555.669 97.0944 555.207 96.8926C554.751 96.6842 554.4 96.3522 554.152 95.8965C553.905 95.4408 553.781 94.8418 553.781 94.0996V83.8262ZM562.98 86.4336V97H560.158V86.4336H562.98ZM559.982 83.6797C559.982 83.2695 560.126 82.931 560.412 82.6641C560.699 82.3971 561.083 82.2637 561.564 82.2637C562.04 82.2637 562.421 82.3971 562.707 82.6641C563 82.931 563.146 83.2695 563.146 83.6797C563.146 84.0898 563 84.4284 562.707 84.6953C562.421 84.9622 562.04 85.0957 561.564 85.0957C561.083 85.0957 560.699 84.9622 560.412 84.6953C560.126 84.4284 559.982 84.0898 559.982 83.6797ZM564.855 91.8242V91.6191C564.855 90.8444 564.966 90.1315 565.188 89.4805C565.409 88.8229 565.731 88.2533 566.154 87.7715C566.577 87.2897 567.098 86.9154 567.717 86.6484C568.335 86.375 569.045 86.2383 569.846 86.2383C570.646 86.2383 571.359 86.375 571.984 86.6484C572.609 86.9154 573.133 87.2897 573.557 87.7715C573.986 88.2533 574.312 88.8229 574.533 89.4805C574.755 90.1315 574.865 90.8444 574.865 91.6191V91.8242C574.865 92.5924 574.755 93.3053 574.533 93.9629C574.312 94.6139 573.986 95.1836 573.557 95.6719C573.133 96.1536 572.613 96.528 571.994 96.7949C571.376 97.0618 570.666 97.1953 569.865 97.1953C569.064 97.1953 568.352 97.0618 567.727 96.7949C567.108 96.528 566.584 96.1536 566.154 95.6719C565.731 95.1836 565.409 94.6139 565.188 93.9629C564.966 93.3053 564.855 92.5924 564.855 91.8242ZM567.668 91.6191V91.8242C567.668 92.2669 567.707 92.6803 567.785 93.0645C567.863 93.4486 567.987 93.7871 568.156 94.0801C568.332 94.3665 568.56 94.5911 568.84 94.7539C569.12 94.9167 569.462 94.998 569.865 94.998C570.256 94.998 570.591 94.9167 570.871 94.7539C571.151 94.5911 571.376 94.3665 571.545 94.0801C571.714 93.7871 571.838 93.4486 571.916 93.0645C572.001 92.6803 572.043 92.2669 572.043 91.8242V91.6191C572.043 91.1895 572.001 90.7858 571.916 90.4082C571.838 90.0241 571.711 89.6855 571.535 89.3926C571.366 89.0931 571.141 88.8587 570.861 88.6895C570.581 88.5202 570.243 88.4355 569.846 88.4355C569.449 88.4355 569.11 88.5202 568.83 88.6895C568.557 88.8587 568.332 89.0931 568.156 89.3926C567.987 89.6855 567.863 90.0241 567.785 90.4082C567.707 90.7858 567.668 91.1895 567.668 91.6191ZM579.348 88.6895V97H576.535V86.4336H579.172L579.348 88.6895ZM578.938 91.3457H578.176C578.176 90.5645 578.277 89.8613 578.479 89.2363C578.68 88.6048 578.964 88.0677 579.328 87.625C579.693 87.1758 580.126 86.834 580.627 86.5996C581.135 86.3587 581.701 86.2383 582.326 86.2383C582.821 86.2383 583.273 86.3099 583.684 86.4531C584.094 86.5964 584.445 86.8242 584.738 87.1367C585.038 87.4492 585.266 87.8626 585.422 88.377C585.585 88.8913 585.666 89.5195 585.666 90.2617V97H582.834V90.252C582.834 89.7832 582.769 89.4186 582.639 89.1582C582.508 88.8978 582.316 88.7155 582.062 88.6113C581.815 88.5007 581.509 88.4453 581.145 88.4453C580.767 88.4453 580.438 88.5202 580.158 88.6699C579.885 88.8197 579.657 89.028 579.475 89.2949C579.299 89.5553 579.165 89.8613 579.074 90.2129C578.983 90.5645 578.938 90.9421 578.938 91.3457ZM595.373 82.7812L598.049 87.7422L600.725 82.7812H604.074L599.943 89.832L604.182 97H600.803L598.049 91.9414L595.295 97H591.896L596.145 89.832L592.004 82.7812H595.373Z" fill="#222222"/>
<path d="M510.544 121.337L506.308 133H504.576L509.454 120.203H510.57L510.544 121.337ZM514.095 133L509.85 121.337L509.823 120.203H510.939L515.835 133H514.095ZM513.875 128.263V129.651H506.686V128.263H513.875ZM523.464 123.49H524.94V132.798C524.94 133.636 524.771 134.351 524.431 134.942C524.091 135.534 523.616 135.982 523.007 136.287C522.403 136.598 521.706 136.753 520.915 136.753C520.587 136.753 520.2 136.7 519.755 136.595C519.315 136.495 518.882 136.322 518.454 136.076C518.032 135.836 517.678 135.511 517.391 135.101L518.243 134.134C518.642 134.614 519.058 134.948 519.491 135.136C519.931 135.323 520.364 135.417 520.792 135.417C521.308 135.417 521.753 135.32 522.128 135.127C522.503 134.934 522.793 134.646 522.998 134.266C523.209 133.891 523.314 133.428 523.314 132.877V125.582L523.464 123.49ZM516.916 128.351V128.166C516.916 127.439 517.001 126.78 517.171 126.188C517.347 125.591 517.596 125.078 517.918 124.65C518.246 124.223 518.642 123.895 519.104 123.666C519.567 123.432 520.089 123.314 520.669 123.314C521.267 123.314 521.788 123.42 522.233 123.631C522.685 123.836 523.065 124.138 523.376 124.536C523.692 124.929 523.941 125.403 524.123 125.96C524.305 126.517 524.431 127.146 524.501 127.85V128.658C524.437 129.355 524.311 129.982 524.123 130.539C523.941 131.096 523.692 131.57 523.376 131.963C523.065 132.355 522.685 132.657 522.233 132.868C521.782 133.073 521.255 133.176 520.651 133.176C520.083 133.176 519.567 133.056 519.104 132.815C518.647 132.575 518.255 132.238 517.927 131.805C517.599 131.371 517.347 130.861 517.171 130.275C517.001 129.684 516.916 129.042 516.916 128.351ZM518.542 128.166V128.351C518.542 128.825 518.589 129.271 518.683 129.687C518.782 130.103 518.932 130.469 519.131 130.785C519.336 131.102 519.597 131.351 519.913 131.532C520.229 131.708 520.607 131.796 521.047 131.796C521.586 131.796 522.031 131.682 522.383 131.453C522.734 131.225 523.013 130.923 523.218 130.548C523.429 130.173 523.593 129.766 523.71 129.326V127.208C523.646 126.886 523.546 126.575 523.411 126.276C523.282 125.972 523.112 125.702 522.901 125.468C522.696 125.228 522.441 125.037 522.137 124.896C521.832 124.756 521.475 124.686 521.064 124.686C520.619 124.686 520.235 124.779 519.913 124.967C519.597 125.148 519.336 125.4 519.131 125.723C518.932 126.039 518.782 126.408 518.683 126.83C518.589 127.246 518.542 127.691 518.542 128.166ZM531.356 133.176C530.694 133.176 530.094 133.064 529.555 132.842C529.021 132.613 528.562 132.294 528.175 131.884C527.794 131.474 527.501 130.987 527.296 130.425C527.091 129.862 526.988 129.247 526.988 128.579V128.21C526.988 127.437 527.103 126.748 527.331 126.145C527.56 125.535 527.87 125.02 528.263 124.598C528.655 124.176 529.101 123.856 529.599 123.64C530.097 123.423 530.612 123.314 531.146 123.314C531.825 123.314 532.411 123.432 532.903 123.666C533.401 123.9 533.809 124.229 534.125 124.65C534.441 125.066 534.676 125.559 534.828 126.127C534.98 126.689 535.057 127.305 535.057 127.973V128.702H527.955V127.375H533.431V127.252C533.407 126.83 533.319 126.42 533.167 126.021C533.021 125.623 532.786 125.295 532.464 125.037C532.142 124.779 531.702 124.65 531.146 124.65C530.776 124.65 530.437 124.729 530.126 124.888C529.815 125.04 529.549 125.269 529.326 125.573C529.104 125.878 528.931 126.25 528.808 126.689C528.685 127.129 528.623 127.636 528.623 128.21V128.579C528.623 129.03 528.685 129.455 528.808 129.854C528.937 130.246 529.121 130.592 529.361 130.891C529.607 131.189 529.903 131.424 530.249 131.594C530.601 131.764 530.999 131.849 531.444 131.849C532.019 131.849 532.505 131.731 532.903 131.497C533.302 131.263 533.65 130.949 533.949 130.557L534.934 131.339C534.729 131.649 534.468 131.945 534.151 132.227C533.835 132.508 533.445 132.736 532.982 132.912C532.525 133.088 531.983 133.176 531.356 133.176ZM551.123 126.628V131.312C550.965 131.547 550.713 131.811 550.367 132.104C550.021 132.391 549.544 132.643 548.935 132.859C548.331 133.07 547.552 133.176 546.597 133.176C545.817 133.176 545.1 133.041 544.443 132.771C543.793 132.496 543.228 132.098 542.747 131.576C542.272 131.049 541.903 130.41 541.64 129.66C541.382 128.904 541.253 128.049 541.253 127.094V126.101C541.253 125.146 541.364 124.293 541.587 123.543C541.815 122.793 542.149 122.157 542.589 121.636C543.028 121.108 543.567 120.71 544.206 120.44C544.845 120.165 545.577 120.027 546.403 120.027C547.382 120.027 548.199 120.197 548.855 120.537C549.518 120.871 550.033 121.334 550.402 121.926C550.777 122.518 551.018 123.191 551.123 123.947H549.427C549.351 123.484 549.198 123.062 548.97 122.682C548.747 122.301 548.428 121.996 548.012 121.768C547.596 121.533 547.06 121.416 546.403 121.416C545.812 121.416 545.299 121.524 544.865 121.741C544.432 121.958 544.074 122.269 543.793 122.673C543.512 123.077 543.301 123.566 543.16 124.141C543.025 124.715 542.958 125.362 542.958 126.083V127.094C542.958 127.832 543.043 128.491 543.213 129.071C543.389 129.651 543.638 130.146 543.96 130.557C544.282 130.961 544.666 131.269 545.111 131.479C545.562 131.69 546.061 131.796 546.605 131.796C547.209 131.796 547.698 131.746 548.073 131.646C548.448 131.541 548.741 131.418 548.952 131.277C549.163 131.131 549.324 130.993 549.436 130.864V127.999H546.474V126.628H551.123ZM555.315 124.984V133H553.689V123.49H555.271L555.315 124.984ZM558.286 123.438L558.277 124.949C558.143 124.92 558.014 124.902 557.891 124.896C557.773 124.885 557.639 124.879 557.486 124.879C557.111 124.879 556.78 124.938 556.493 125.055C556.206 125.172 555.963 125.336 555.764 125.547C555.564 125.758 555.406 126.01 555.289 126.303C555.178 126.59 555.104 126.906 555.069 127.252L554.612 127.516C554.612 126.941 554.668 126.402 554.779 125.898C554.896 125.395 555.075 124.949 555.315 124.562C555.556 124.17 555.86 123.865 556.229 123.648C556.604 123.426 557.05 123.314 557.565 123.314C557.683 123.314 557.817 123.329 557.97 123.358C558.122 123.382 558.228 123.408 558.286 123.438ZM559.183 128.351V128.148C559.183 127.463 559.282 126.827 559.481 126.241C559.681 125.649 559.968 125.137 560.343 124.703C560.718 124.264 561.172 123.924 561.705 123.684C562.238 123.438 562.836 123.314 563.498 123.314C564.166 123.314 564.767 123.438 565.3 123.684C565.839 123.924 566.296 124.264 566.671 124.703C567.052 125.137 567.342 125.649 567.541 126.241C567.74 126.827 567.84 127.463 567.84 128.148V128.351C567.84 129.036 567.74 129.672 567.541 130.258C567.342 130.844 567.052 131.356 566.671 131.796C566.296 132.229 565.842 132.569 565.309 132.815C564.781 133.056 564.184 133.176 563.516 133.176C562.848 133.176 562.247 133.056 561.714 132.815C561.181 132.569 560.724 132.229 560.343 131.796C559.968 131.356 559.681 130.844 559.481 130.258C559.282 129.672 559.183 129.036 559.183 128.351ZM560.809 128.148V128.351C560.809 128.825 560.864 129.273 560.976 129.695C561.087 130.111 561.254 130.48 561.477 130.803C561.705 131.125 561.989 131.38 562.329 131.567C562.669 131.749 563.064 131.84 563.516 131.84C563.961 131.84 564.351 131.749 564.685 131.567C565.024 131.38 565.306 131.125 565.528 130.803C565.751 130.48 565.918 130.111 566.029 129.695C566.146 129.273 566.205 128.825 566.205 128.351V128.148C566.205 127.68 566.146 127.237 566.029 126.821C565.918 126.399 565.748 126.027 565.52 125.705C565.297 125.377 565.016 125.119 564.676 124.932C564.342 124.744 563.949 124.65 563.498 124.65C563.053 124.65 562.66 124.744 562.32 124.932C561.986 125.119 561.705 125.377 561.477 125.705C561.254 126.027 561.087 126.399 560.976 126.821C560.864 127.237 560.809 127.68 560.809 128.148ZM575.697 130.803V123.49H577.332V133H575.776L575.697 130.803ZM576.005 128.799L576.682 128.781C576.682 129.414 576.614 130 576.479 130.539C576.351 131.072 576.14 131.535 575.847 131.928C575.554 132.32 575.17 132.628 574.695 132.851C574.221 133.067 573.644 133.176 572.964 133.176C572.501 133.176 572.076 133.108 571.689 132.974C571.309 132.839 570.98 132.631 570.705 132.35C570.43 132.068 570.216 131.702 570.063 131.251C569.917 130.8 569.844 130.258 569.844 129.625V123.49H571.47V129.643C571.47 130.07 571.517 130.425 571.61 130.706C571.71 130.981 571.842 131.201 572.006 131.365C572.176 131.523 572.363 131.635 572.568 131.699C572.779 131.764 572.996 131.796 573.219 131.796C573.91 131.796 574.458 131.664 574.862 131.4C575.267 131.131 575.557 130.771 575.732 130.319C575.914 129.862 576.005 129.355 576.005 128.799ZM581.437 125.318V136.656H579.802V123.49H581.296L581.437 125.318ZM587.844 128.166V128.351C587.844 129.042 587.762 129.684 587.598 130.275C587.434 130.861 587.193 131.371 586.877 131.805C586.566 132.238 586.183 132.575 585.726 132.815C585.269 133.056 584.744 133.176 584.152 133.176C583.549 133.176 583.016 133.076 582.553 132.877C582.09 132.678 581.697 132.388 581.375 132.007C581.053 131.626 580.795 131.169 580.602 130.636C580.414 130.103 580.285 129.502 580.215 128.834V127.85C580.285 127.146 580.417 126.517 580.61 125.96C580.804 125.403 581.059 124.929 581.375 124.536C581.697 124.138 582.087 123.836 582.544 123.631C583.001 123.42 583.528 123.314 584.126 123.314C584.724 123.314 585.254 123.432 585.717 123.666C586.18 123.895 586.569 124.223 586.886 124.65C587.202 125.078 587.439 125.591 587.598 126.188C587.762 126.78 587.844 127.439 587.844 128.166ZM586.209 128.351V128.166C586.209 127.691 586.159 127.246 586.06 126.83C585.96 126.408 585.805 126.039 585.594 125.723C585.389 125.4 585.125 125.148 584.803 124.967C584.48 124.779 584.097 124.686 583.651 124.686C583.241 124.686 582.884 124.756 582.579 124.896C582.28 125.037 582.025 125.228 581.814 125.468C581.604 125.702 581.431 125.972 581.296 126.276C581.167 126.575 581.07 126.886 581.006 127.208V129.484C581.123 129.895 581.287 130.281 581.498 130.645C581.709 131.002 581.99 131.292 582.342 131.515C582.693 131.731 583.136 131.84 583.669 131.84C584.108 131.84 584.486 131.749 584.803 131.567C585.125 131.38 585.389 131.125 585.594 130.803C585.805 130.48 585.96 130.111 586.06 129.695C586.159 129.273 586.209 128.825 586.209 128.351ZM531.242 149.693V151.029H521.996V150.071L527.727 141.203H529.054L527.63 143.77L523.842 149.693H531.242ZM529.458 141.203V154H527.832V141.203H529.458ZM540.752 146.582V148.533C540.752 149.582 540.658 150.467 540.471 151.188C540.283 151.908 540.014 152.488 539.662 152.928C539.311 153.367 538.886 153.687 538.388 153.886C537.896 154.079 537.339 154.176 536.718 154.176C536.226 154.176 535.771 154.114 535.355 153.991C534.939 153.868 534.564 153.672 534.23 153.402C533.902 153.127 533.621 152.77 533.387 152.33C533.152 151.891 532.974 151.357 532.851 150.73C532.728 150.104 532.666 149.371 532.666 148.533V146.582C532.666 145.533 532.76 144.654 532.947 143.945C533.141 143.236 533.413 142.668 533.765 142.24C534.116 141.807 534.538 141.496 535.03 141.309C535.528 141.121 536.085 141.027 536.7 141.027C537.198 141.027 537.655 141.089 538.071 141.212C538.493 141.329 538.868 141.52 539.196 141.783C539.524 142.041 539.803 142.387 540.031 142.82C540.266 143.248 540.444 143.772 540.567 144.394C540.69 145.015 540.752 145.744 540.752 146.582ZM539.117 148.797V146.31C539.117 145.735 539.082 145.231 539.012 144.798C538.947 144.358 538.851 143.983 538.722 143.673C538.593 143.362 538.429 143.11 538.229 142.917C538.036 142.724 537.811 142.583 537.553 142.495C537.301 142.401 537.017 142.354 536.7 142.354C536.313 142.354 535.971 142.428 535.672 142.574C535.373 142.715 535.121 142.94 534.916 143.251C534.717 143.562 534.564 143.969 534.459 144.473C534.354 144.977 534.301 145.589 534.301 146.31V148.797C534.301 149.371 534.333 149.878 534.397 150.317C534.468 150.757 534.57 151.138 534.705 151.46C534.84 151.776 535.004 152.037 535.197 152.242C535.391 152.447 535.613 152.6 535.865 152.699C536.123 152.793 536.407 152.84 536.718 152.84C537.116 152.84 537.465 152.764 537.764 152.611C538.062 152.459 538.312 152.222 538.511 151.899C538.716 151.571 538.868 151.152 538.968 150.643C539.067 150.127 539.117 149.512 539.117 148.797ZM550.868 147.892V149.228H546.579V147.892H550.868ZM554.34 147.909L553.039 147.575L553.681 141.203H560.246V142.706H555.061L554.674 146.187C554.908 146.052 555.204 145.926 555.562 145.809C555.925 145.691 556.341 145.633 556.81 145.633C557.401 145.633 557.932 145.735 558.4 145.94C558.869 146.14 559.268 146.427 559.596 146.802C559.93 147.177 560.185 147.628 560.36 148.155C560.536 148.683 560.624 149.271 560.624 149.922C560.624 150.537 560.539 151.103 560.369 151.618C560.205 152.134 559.956 152.585 559.622 152.972C559.288 153.353 558.866 153.648 558.356 153.859C557.853 154.07 557.258 154.176 556.572 154.176C556.057 154.176 555.567 154.105 555.104 153.965C554.647 153.818 554.237 153.599 553.874 153.306C553.517 153.007 553.224 152.638 552.995 152.198C552.772 151.753 552.632 151.231 552.573 150.634H554.12C554.19 151.114 554.331 151.519 554.542 151.847C554.753 152.175 555.028 152.424 555.368 152.594C555.714 152.758 556.115 152.84 556.572 152.84C556.959 152.84 557.302 152.772 557.601 152.638C557.899 152.503 558.151 152.31 558.356 152.058C558.562 151.806 558.717 151.501 558.822 151.144C558.934 150.786 558.989 150.385 558.989 149.939C558.989 149.535 558.934 149.16 558.822 148.814C558.711 148.469 558.544 148.167 558.321 147.909C558.104 147.651 557.838 147.452 557.521 147.312C557.205 147.165 556.842 147.092 556.432 147.092C555.887 147.092 555.474 147.165 555.192 147.312C554.917 147.458 554.633 147.657 554.34 147.909ZM564.465 147.909L563.164 147.575L563.806 141.203H570.371V142.706H565.186L564.799 146.187C565.033 146.052 565.329 145.926 565.687 145.809C566.05 145.691 566.466 145.633 566.935 145.633C567.526 145.633 568.057 145.735 568.525 145.94C568.994 146.14 569.393 146.427 569.721 146.802C570.055 147.177 570.31 147.628 570.485 148.155C570.661 148.683 570.749 149.271 570.749 149.922C570.749 150.537 570.664 151.103 570.494 151.618C570.33 152.134 570.081 152.585 569.747 152.972C569.413 153.353 568.991 153.648 568.481 153.859C567.978 154.07 567.383 154.176 566.697 154.176C566.182 154.176 565.692 154.105 565.229 153.965C564.772 153.818 564.362 153.599 563.999 153.306C563.642 153.007 563.349 152.638 563.12 152.198C562.897 151.753 562.757 151.231 562.698 150.634H564.245C564.315 151.114 564.456 151.519 564.667 151.847C564.878 152.175 565.153 152.424 565.493 152.594C565.839 152.758 566.24 152.84 566.697 152.84C567.084 152.84 567.427 152.772 567.726 152.638C568.024 152.503 568.276 152.31 568.481 152.058C568.687 151.806 568.842 151.501 568.947 151.144C569.059 150.786 569.114 150.385 569.114 149.939C569.114 149.535 569.059 149.16 568.947 148.814C568.836 148.469 568.669 148.167 568.446 147.909C568.229 147.651 567.963 147.452 567.646 147.312C567.33 147.165 566.967 147.092 566.557 147.092C566.012 147.092 565.599 147.165 565.317 147.312C565.042 147.458 564.758 147.657 564.465 147.909Z" fill="#222222"/>
<path d="M646.672 93.2793C646.672 93.0254 646.633 92.7975 646.555 92.5957C646.483 92.3874 646.346 92.1986 646.145 92.0293C645.943 91.8535 645.66 91.681 645.295 91.5117C644.93 91.3424 644.458 91.1667 643.879 90.9844C643.234 90.776 642.622 90.5417 642.043 90.2812C641.47 90.0208 640.962 89.7181 640.52 89.373C640.083 89.0215 639.738 88.6146 639.484 88.1523C639.237 87.6901 639.113 87.153 639.113 86.541C639.113 85.9486 639.243 85.4115 639.504 84.9297C639.764 84.4414 640.129 84.0247 640.598 83.6797C641.066 83.3281 641.62 83.0579 642.258 82.8691C642.902 82.6803 643.609 82.5859 644.377 82.5859C645.425 82.5859 646.34 82.7747 647.121 83.1523C647.902 83.5299 648.508 84.0475 648.938 84.7051C649.374 85.3626 649.592 86.1146 649.592 86.9609H646.682C646.682 86.5443 646.594 86.1797 646.418 85.8672C646.249 85.5482 645.988 85.2975 645.637 85.1152C645.292 84.9329 644.855 84.8418 644.328 84.8418C643.82 84.8418 643.397 84.9199 643.059 85.0762C642.72 85.2259 642.466 85.431 642.297 85.6914C642.128 85.9453 642.043 86.2318 642.043 86.5508C642.043 86.7917 642.102 87.0098 642.219 87.2051C642.342 87.4004 642.525 87.5827 642.766 87.752C643.007 87.9212 643.303 88.0807 643.654 88.2305C644.006 88.3802 644.413 88.5267 644.875 88.6699C645.65 88.9043 646.33 89.168 646.916 89.4609C647.508 89.7539 648.003 90.0827 648.4 90.4473C648.798 90.8118 649.097 91.2253 649.299 91.6875C649.501 92.1497 649.602 92.6738 649.602 93.2598C649.602 93.8783 649.481 94.4316 649.24 94.9199C648.999 95.4082 648.651 95.8216 648.195 96.1602C647.74 96.4987 647.196 96.7559 646.564 96.9316C645.933 97.1074 645.227 97.1953 644.445 97.1953C643.742 97.1953 643.049 97.1042 642.365 96.9219C641.682 96.7331 641.06 96.4499 640.5 96.0723C639.947 95.6947 639.504 95.2129 639.172 94.627C638.84 94.041 638.674 93.3477 638.674 92.5469H641.613C641.613 92.9896 641.682 93.3639 641.818 93.6699C641.955 93.9759 642.147 94.2233 642.395 94.4121C642.648 94.6009 642.948 94.7376 643.293 94.8223C643.645 94.9069 644.029 94.9492 644.445 94.9492C644.953 94.9492 645.37 94.8776 645.695 94.7344C646.027 94.5911 646.271 94.3926 646.428 94.1387C646.59 93.8848 646.672 93.5983 646.672 93.2793ZM656.281 97.1953C655.461 97.1953 654.725 97.0651 654.074 96.8047C653.423 96.5378 652.87 96.1699 652.414 95.7012C651.965 95.2324 651.62 94.6888 651.379 94.0703C651.138 93.4453 651.018 92.7812 651.018 92.0781V91.6875C651.018 90.8867 651.132 90.1543 651.359 89.4902C651.587 88.8262 651.913 88.25 652.336 87.7617C652.766 87.2734 653.286 86.8991 653.898 86.6387C654.51 86.3717 655.201 86.2383 655.969 86.2383C656.717 86.2383 657.382 86.362 657.961 86.6094C658.54 86.8568 659.025 87.2083 659.416 87.6641C659.813 88.1198 660.113 88.6667 660.314 89.3047C660.516 89.9362 660.617 90.6393 660.617 91.4141V92.5859H652.219V90.7109H657.854V90.4961C657.854 90.1055 657.782 89.7572 657.639 89.4512C657.502 89.1387 657.294 88.8913 657.014 88.709C656.734 88.5267 656.376 88.4355 655.939 88.4355C655.568 88.4355 655.249 88.5169 654.982 88.6797C654.715 88.8424 654.497 89.0703 654.328 89.3633C654.165 89.6562 654.042 90.0013 653.957 90.3984C653.879 90.7891 653.84 91.2188 653.84 91.6875V92.0781C653.84 92.5013 653.898 92.8919 654.016 93.25C654.139 93.6081 654.312 93.9173 654.533 94.1777C654.761 94.4382 655.035 94.64 655.354 94.7832C655.679 94.9264 656.047 94.998 656.457 94.998C656.965 94.998 657.437 94.9004 657.873 94.7051C658.316 94.5033 658.697 94.2005 659.016 93.7969L660.383 95.2812C660.161 95.6003 659.859 95.9062 659.475 96.1992C659.097 96.4922 658.641 96.7331 658.107 96.9219C657.574 97.1042 656.965 97.1953 656.281 97.1953ZM664.973 88.6895V97H662.16V86.4336H664.797L664.973 88.6895ZM664.562 91.3457H663.801C663.801 90.5645 663.902 89.8613 664.104 89.2363C664.305 88.6048 664.589 88.0677 664.953 87.625C665.318 87.1758 665.751 86.834 666.252 86.5996C666.76 86.3587 667.326 86.2383 667.951 86.2383C668.446 86.2383 668.898 86.3099 669.309 86.4531C669.719 86.5964 670.07 86.8242 670.363 87.1367C670.663 87.4492 670.891 87.8626 671.047 88.377C671.21 88.8913 671.291 89.5195 671.291 90.2617V97H668.459V90.252C668.459 89.7832 668.394 89.4186 668.264 89.1582C668.133 88.8978 667.941 88.7155 667.688 88.6113C667.44 88.5007 667.134 88.4453 666.77 88.4453C666.392 88.4453 666.063 88.5202 665.783 88.6699C665.51 88.8197 665.282 89.028 665.1 89.2949C664.924 89.5553 664.79 89.8613 664.699 90.2129C664.608 90.5645 664.562 90.9421 664.562 91.3457ZM676.398 86.4336V97H673.576V86.4336H676.398ZM673.4 83.6797C673.4 83.2695 673.544 82.931 673.83 82.6641C674.117 82.3971 674.501 82.2637 674.982 82.2637C675.458 82.2637 675.839 82.3971 676.125 82.6641C676.418 82.931 676.564 83.2695 676.564 83.6797C676.564 84.0898 676.418 84.4284 676.125 84.6953C675.839 84.9622 675.458 85.0957 674.982 85.0957C674.501 85.0957 674.117 84.9622 673.83 84.6953C673.544 84.4284 673.4 84.0898 673.4 83.6797ZM678.273 91.8242V91.6191C678.273 90.8444 678.384 90.1315 678.605 89.4805C678.827 88.8229 679.149 88.2533 679.572 87.7715C679.995 87.2897 680.516 86.9154 681.135 86.6484C681.753 86.375 682.463 86.2383 683.264 86.2383C684.064 86.2383 684.777 86.375 685.402 86.6484C686.027 86.9154 686.551 87.2897 686.975 87.7715C687.404 88.2533 687.73 88.8229 687.951 89.4805C688.173 90.1315 688.283 90.8444 688.283 91.6191V91.8242C688.283 92.5924 688.173 93.3053 687.951 93.9629C687.73 94.6139 687.404 95.1836 686.975 95.6719C686.551 96.1536 686.031 96.528 685.412 96.7949C684.794 97.0618 684.084 97.1953 683.283 97.1953C682.482 97.1953 681.77 97.0618 681.145 96.7949C680.526 96.528 680.002 96.1536 679.572 95.6719C679.149 95.1836 678.827 94.6139 678.605 93.9629C678.384 93.3053 678.273 92.5924 678.273 91.8242ZM681.086 91.6191V91.8242C681.086 92.2669 681.125 92.6803 681.203 93.0645C681.281 93.4486 681.405 93.7871 681.574 94.0801C681.75 94.3665 681.978 94.5911 682.258 94.7539C682.538 94.9167 682.88 94.998 683.283 94.998C683.674 94.998 684.009 94.9167 684.289 94.7539C684.569 94.5911 684.794 94.3665 684.963 94.0801C685.132 93.7871 685.256 93.4486 685.334 93.0645C685.419 92.6803 685.461 92.2669 685.461 91.8242V91.6191C685.461 91.1895 685.419 90.7858 685.334 90.4082C685.256 90.0241 685.129 89.6855 684.953 89.3926C684.784 89.0931 684.559 88.8587 684.279 88.6895C683.999 88.5202 683.661 88.4355 683.264 88.4355C682.867 88.4355 682.528 88.5202 682.248 88.6895C681.975 88.8587 681.75 89.0931 681.574 89.3926C681.405 89.6855 681.281 90.0241 681.203 90.4082C681.125 90.7858 681.086 91.1895 681.086 91.6191ZM692.824 88.7383V97H690.012V86.4336H692.658L692.824 88.7383ZM696.008 86.3652L695.959 88.9727C695.822 88.9531 695.656 88.9368 695.461 88.9238C695.272 88.9043 695.1 88.8945 694.943 88.8945C694.546 88.8945 694.201 88.9466 693.908 89.0508C693.622 89.1484 693.381 89.2949 693.186 89.4902C692.997 89.6855 692.854 89.9232 692.756 90.2031C692.665 90.4831 692.613 90.8021 692.6 91.1602L692.033 90.9844C692.033 90.3008 692.102 89.6725 692.238 89.0996C692.375 88.5202 692.574 88.0156 692.834 87.5859C693.101 87.1562 693.426 86.8242 693.811 86.5898C694.195 86.3555 694.634 86.2383 695.129 86.2383C695.285 86.2383 695.445 86.2513 695.607 86.2773C695.77 86.2969 695.904 86.3262 696.008 86.3652ZM710.734 92.2832H713.654C713.596 93.2402 713.332 94.0898 712.863 94.832C712.401 95.5742 711.753 96.1536 710.92 96.5703C710.093 96.987 709.097 97.1953 707.932 97.1953C707.02 97.1953 706.203 97.0391 705.48 96.7266C704.758 96.4076 704.139 95.9518 703.625 95.3594C703.117 94.7669 702.73 94.0508 702.463 93.2109C702.196 92.3711 702.062 91.4303 702.062 90.3887V89.4023C702.062 88.3607 702.199 87.4199 702.473 86.5801C702.753 85.7337 703.15 85.0143 703.664 84.4219C704.185 83.8294 704.807 83.3737 705.529 83.0547C706.252 82.7357 707.059 82.5762 707.951 82.5762C709.136 82.5762 710.135 82.791 710.949 83.2207C711.77 83.6504 712.404 84.2428 712.854 84.998C713.309 85.7533 713.583 86.6126 713.674 87.5762H710.744C710.712 87.0033 710.598 86.5182 710.402 86.1211C710.207 85.7174 709.911 85.4147 709.514 85.2129C709.123 85.0046 708.602 84.9004 707.951 84.9004C707.463 84.9004 707.036 84.9915 706.672 85.1738C706.307 85.3561 706.001 85.6328 705.754 86.0039C705.507 86.375 705.321 86.8438 705.197 87.4102C705.08 87.9701 705.021 88.6276 705.021 89.3828V90.3887C705.021 91.1243 705.077 91.7721 705.188 92.332C705.298 92.8854 705.467 93.3542 705.695 93.7383C705.93 94.1159 706.229 94.4023 706.594 94.5977C706.965 94.7865 707.411 94.8809 707.932 94.8809C708.544 94.8809 709.048 94.7832 709.445 94.5879C709.842 94.3926 710.145 94.1029 710.354 93.7188C710.568 93.3346 710.695 92.8561 710.734 92.2832ZM718.371 86.4336V97H715.549V86.4336H718.371ZM715.373 83.6797C715.373 83.2695 715.516 82.931 715.803 82.6641C716.089 82.3971 716.473 82.2637 716.955 82.2637C717.43 82.2637 717.811 82.3971 718.098 82.6641C718.391 82.931 718.537 83.2695 718.537 83.6797C718.537 84.0898 718.391 84.4284 718.098 84.6953C717.811 84.9622 717.43 85.0957 716.955 85.0957C716.473 85.0957 716.089 84.9622 715.803 84.6953C715.516 84.4284 715.373 84.0898 715.373 83.6797ZM725.871 86.4336V88.4258H719.719V86.4336H725.871ZM721.242 83.8262H724.055V93.8164C724.055 94.1224 724.094 94.3568 724.172 94.5195C724.257 94.6823 724.38 94.7962 724.543 94.8613C724.706 94.9199 724.911 94.9492 725.158 94.9492C725.334 94.9492 725.49 94.9427 725.627 94.9297C725.77 94.9102 725.891 94.8906 725.988 94.8711L725.998 96.9414C725.757 97.0195 725.497 97.0814 725.217 97.127C724.937 97.1725 724.628 97.1953 724.289 97.1953C723.671 97.1953 723.13 97.0944 722.668 96.8926C722.212 96.6842 721.861 96.3522 721.613 95.8965C721.366 95.4408 721.242 94.8418 721.242 94.0996V83.8262ZM730.441 86.4336V97H727.619V86.4336H730.441ZM727.443 83.6797C727.443 83.2695 727.587 82.931 727.873 82.6641C728.16 82.3971 728.544 82.2637 729.025 82.2637C729.501 82.2637 729.882 82.3971 730.168 82.6641C730.461 82.931 730.607 83.2695 730.607 83.6797C730.607 84.0898 730.461 84.4284 730.168 84.6953C729.882 84.9622 729.501 85.0957 729.025 85.0957C728.544 85.0957 728.16 84.9622 727.873 84.6953C727.587 84.4284 727.443 84.0898 727.443 83.6797ZM741.174 94.8027V97H733.146V94.8027H741.174ZM741.018 88.0547L734.279 97H732.395V95.3301L739.104 86.4336H741.018V88.0547ZM740.021 86.4336V88.6406H732.551V86.4336H740.021ZM747.648 97.1953C746.828 97.1953 746.092 97.0651 745.441 96.8047C744.79 96.5378 744.237 96.1699 743.781 95.7012C743.332 95.2324 742.987 94.6888 742.746 94.0703C742.505 93.4453 742.385 92.7812 742.385 92.0781V91.6875C742.385 90.8867 742.499 90.1543 742.727 89.4902C742.954 88.8262 743.28 88.25 743.703 87.7617C744.133 87.2734 744.654 86.8991 745.266 86.6387C745.878 86.3717 746.568 86.2383 747.336 86.2383C748.085 86.2383 748.749 86.362 749.328 86.6094C749.908 86.8568 750.393 87.2083 750.783 87.6641C751.18 88.1198 751.48 88.6667 751.682 89.3047C751.883 89.9362 751.984 90.6393 751.984 91.4141V92.5859H743.586V90.7109H749.221V90.4961C749.221 90.1055 749.149 89.7572 749.006 89.4512C748.869 89.1387 748.661 88.8913 748.381 88.709C748.101 88.5267 747.743 88.4355 747.307 88.4355C746.936 88.4355 746.617 88.5169 746.35 88.6797C746.083 88.8424 745.865 89.0703 745.695 89.3633C745.533 89.6562 745.409 90.0013 745.324 90.3984C745.246 90.7891 745.207 91.2188 745.207 91.6875V92.0781C745.207 92.5013 745.266 92.8919 745.383 93.25C745.507 93.6081 745.679 93.9173 745.9 94.1777C746.128 94.4382 746.402 94.64 746.721 94.7832C747.046 94.9264 747.414 94.998 747.824 94.998C748.332 94.998 748.804 94.9004 749.24 94.7051C749.683 94.5033 750.064 94.2005 750.383 93.7969L751.75 95.2812C751.529 95.6003 751.226 95.9062 750.842 96.1992C750.464 96.4922 750.008 96.7331 749.475 96.9219C748.941 97.1042 748.332 97.1953 747.648 97.1953ZM756.34 88.6895V97H753.527V86.4336H756.164L756.34 88.6895ZM755.93 91.3457H755.168C755.168 90.5645 755.269 89.8613 755.471 89.2363C755.673 88.6048 755.956 88.0677 756.32 87.625C756.685 87.1758 757.118 86.834 757.619 86.5996C758.127 86.3587 758.693 86.2383 759.318 86.2383C759.813 86.2383 760.266 86.3099 760.676 86.4531C761.086 86.5964 761.438 86.8242 761.73 87.1367C762.03 87.4492 762.258 87.8626 762.414 88.377C762.577 88.8913 762.658 89.5195 762.658 90.2617V97H759.826V90.252C759.826 89.7832 759.761 89.4186 759.631 89.1582C759.501 88.8978 759.309 88.7155 759.055 88.6113C758.807 88.5007 758.501 88.4453 758.137 88.4453C757.759 88.4453 757.43 88.5202 757.15 88.6699C756.877 88.8197 756.649 89.028 756.467 89.2949C756.291 89.5553 756.158 89.8613 756.066 90.2129C755.975 90.5645 755.93 90.9421 755.93 91.3457ZM770.51 94.0801C770.51 93.8783 770.451 93.696 770.334 93.5332C770.217 93.3704 769.999 93.2207 769.68 93.084C769.367 92.9408 768.915 92.8105 768.322 92.6934C767.788 92.5762 767.29 92.4297 766.828 92.2539C766.372 92.0716 765.975 91.8535 765.637 91.5996C765.305 91.3457 765.044 91.0462 764.855 90.7012C764.667 90.3496 764.572 89.9492 764.572 89.5C764.572 89.0573 764.667 88.6406 764.855 88.25C765.051 87.8594 765.327 87.5143 765.686 87.2148C766.05 86.9089 766.493 86.6712 767.014 86.502C767.541 86.3262 768.133 86.2383 768.791 86.2383C769.709 86.2383 770.497 86.3848 771.154 86.6777C771.818 86.9707 772.326 87.3743 772.678 87.8887C773.036 88.3965 773.215 88.9759 773.215 89.627H770.402C770.402 89.3535 770.344 89.1094 770.227 88.8945C770.116 88.6732 769.94 88.5007 769.699 88.377C769.465 88.2467 769.159 88.1816 768.781 88.1816C768.469 88.1816 768.199 88.237 767.971 88.3477C767.743 88.4518 767.567 88.5951 767.443 88.7773C767.326 88.9531 767.268 89.1484 767.268 89.3633C767.268 89.526 767.3 89.6725 767.365 89.8027C767.437 89.9264 767.551 90.0404 767.707 90.1445C767.863 90.2487 768.065 90.3464 768.312 90.4375C768.566 90.5221 768.879 90.6003 769.25 90.6719C770.012 90.8281 770.692 91.0332 771.291 91.2871C771.89 91.5345 772.365 91.873 772.717 92.3027C773.068 92.7259 773.244 93.2826 773.244 93.9727C773.244 94.4414 773.14 94.8711 772.932 95.2617C772.723 95.6523 772.424 95.9941 772.033 96.2871C771.643 96.5736 771.174 96.7982 770.627 96.9609C770.087 97.1172 769.478 97.1953 768.801 97.1953C767.818 97.1953 766.984 97.0195 766.301 96.668C765.624 96.3164 765.109 95.8704 764.758 95.3301C764.413 94.7832 764.24 94.2233 764.24 93.6504H766.906C766.919 94.0345 767.017 94.3438 767.199 94.5781C767.388 94.8125 767.626 94.9818 767.912 95.0859C768.205 95.1901 768.521 95.2422 768.859 95.2422C769.224 95.2422 769.527 95.1934 769.768 95.0957C770.008 94.9915 770.191 94.8548 770.314 94.6855C770.445 94.5098 770.51 94.3079 770.51 94.0801Z" fill="#222222"/>
</svg>
